<?xml version="1.0" encoding="utf-8"?>
<!-- Generator: Adobe Illustrator 15.1.0, SVG Export Plug-In . SVG Version: 6.00 Build 0)  -->
<!DOCTYPE svg PUBLIC "-//W3C//DTD SVG 1.0//EN" "http://www.w3.org/TR/2001/REC-SVG-20010904/DTD/svg10.dtd">
<svg version="1.0" id="Layer_1" xmlns="http://www.w3.org/2000/svg" xmlns:xlink="http://www.w3.org/1999/xlink" x="0px" y="0px"
	 width="611.109px" height="367px" viewBox="0 0 611.109 367" enable-background="new 0 0 611.109 367" xml:space="preserve">
<rect x="0.69" width="610.419" height="367"/>
<g>
	<rect id="Aisle_5" x="433.443" y="66.834" fill="none" stroke="#FFFFFF" stroke-miterlimit="10" width="40.043" height="293.125"/>
	<rect id="Aisle_4" x="334.193" y="66.834" fill="none" stroke="#FFFFFF" stroke-miterlimit="10" width="40.875" height="293.125"/>
	<g>
		<rect x="307.568" y="84.506" fill="none" stroke="#FFFFFF" stroke-miterlimit="10" width="24.762" height="275.453"/>
		<rect x="302.818" y="356.334" fill="none" stroke="#FFFFFF" stroke-miterlimit="10" width="35" height="3.625"/>
		<rect x="309.318" y="313.709" fill="none" stroke="#FFFFFF" stroke-miterlimit="10" width="22.291" height="46.25"/>
		<rect x="302.818" y="328.959" fill="none" stroke="#FFFFFF" stroke-miterlimit="10" width="22.125" height="2.75"/>
		<rect x="302.818" y="344.834" fill="none" stroke="#FFFFFF" stroke-miterlimit="10" width="22.125" height="2.25"/>
		<rect x="302.818" y="313.709" fill="none" stroke="#FFFFFF" stroke-miterlimit="10" width="28.375" height="2.375"/>
		<rect x="327.443" y="328.959" fill="none" stroke="#FFFFFF" stroke-miterlimit="10" width="6.75" height="2.75"/>
		<rect x="327.443" y="344.834" fill="none" stroke="#FFFFFF" stroke-miterlimit="10" width="6.75" height="2.25"/>
		<line fill="none" stroke="#FFFFFF" stroke-miterlimit="10" x1="330.318" y1="316.084" x2="324.943" y2="328.959"/>
		<path fill="none" stroke="#FFFFFF" stroke-miterlimit="10" d="M327.443,328.959"/>
		<path fill="none" stroke="#FFFFFF" stroke-miterlimit="10" d="M331.193,320.084"/>
		<line fill="none" stroke="#FFFFFF" stroke-miterlimit="10" x1="324.943" y1="331.709" x2="324.943" y2="359.959"/>
		<line fill="none" stroke="#FFFFFF" stroke-miterlimit="10" x1="327.443" y1="331.709" x2="327.443" y2="359.959"/>
		<rect x="309.318" y="85.834" fill="none" stroke="#FFFFFF" stroke-miterlimit="10" width="22.207" height="47.583"/>
		<line fill="none" stroke="#FFFFFF" stroke-miterlimit="10" x1="309.318" y1="87.333" x2="331.525" y2="130.083"/>
		<line fill="none" stroke="#FFFFFF" stroke-miterlimit="10" x1="309.318" y1="90.667" x2="331.193" y2="132.834"/>
		<g>
			<line fill="none" stroke="#FFFFFF" stroke-miterlimit="10" x1="310.357" y1="134.834" x2="331.525" y2="175.584"/>
			<line fill="none" stroke="#FFFFFF" stroke-miterlimit="10" x1="309.318" y1="136.167" x2="331.193" y2="178.335"/>
			<rect x="309.318" y="134.834" fill="none" stroke="#FFFFFF" stroke-miterlimit="10" width="22.207" height="43.75"/>
		</g>
		<g>
			<line fill="none" stroke="#FFFFFF" stroke-miterlimit="10" x1="310.357" y1="179.959" x2="331.525" y2="220.709"/>
			<line fill="none" stroke="#FFFFFF" stroke-miterlimit="10" x1="309.318" y1="181.292" x2="331.193" y2="223.46"/>
			<rect x="309.318" y="179.959" fill="none" stroke="#FFFFFF" stroke-miterlimit="10" width="22.207" height="43.75"/>
		</g>
		<g>
			<line fill="none" stroke="#FFFFFF" stroke-miterlimit="10" x1="310.357" y1="225.166" x2="331.525" y2="265.916"/>
			<line fill="none" stroke="#FFFFFF" stroke-miterlimit="10" x1="309.318" y1="226.5" x2="331.193" y2="268.667"/>
			<rect x="309.318" y="225.166" fill="none" stroke="#FFFFFF" stroke-miterlimit="10" width="22.207" height="43.75"/>
		</g>
		<g>
			<line fill="none" stroke="#FFFFFF" stroke-miterlimit="10" x1="310.398" y1="269.959" x2="331.566" y2="310.709"/>
			<line fill="none" stroke="#FFFFFF" stroke-miterlimit="10" x1="309.359" y1="271.293" x2="331.234" y2="313.46"/>
			<rect x="309.359" y="269.959" fill="none" stroke="#FFFFFF" stroke-miterlimit="10" width="22.209" height="43.75"/>
		</g>
	</g>
	<g>
		<rect x="377.307" y="84.506" fill="none" stroke="#FFFFFF" stroke-miterlimit="10" width="24.762" height="275.453"/>
		<rect x="371.818" y="356.334" fill="none" stroke="#FFFFFF" stroke-miterlimit="10" width="35" height="3.625"/>
		<rect x="378.028" y="313.709" fill="none" stroke="#FFFFFF" stroke-miterlimit="10" width="22.291" height="46.25"/>
		<rect x="384.693" y="328.959" fill="none" stroke="#FFFFFF" stroke-miterlimit="10" width="22.125" height="2.75"/>
		<rect x="384.693" y="344.834" fill="none" stroke="#FFFFFF" stroke-miterlimit="10" width="22.125" height="2.25"/>
		<rect x="378.443" y="313.709" fill="none" stroke="#FFFFFF" stroke-miterlimit="10" width="28.375" height="2.375"/>
		<rect x="375.443" y="328.959" fill="none" stroke="#FFFFFF" stroke-miterlimit="10" width="6.75" height="2.75"/>
		<rect x="375.443" y="344.834" fill="none" stroke="#FFFFFF" stroke-miterlimit="10" width="6.75" height="2.25"/>
		<line fill="none" stroke="#FFFFFF" stroke-miterlimit="10" x1="379.318" y1="316.084" x2="384.693" y2="328.959"/>
		<path fill="none" stroke="#FFFFFF" stroke-miterlimit="10" d="M382.193,328.959"/>
		<path fill="none" stroke="#FFFFFF" stroke-miterlimit="10" d="M378.443,320.084"/>
		<line fill="none" stroke="#FFFFFF" stroke-miterlimit="10" x1="384.693" y1="331.709" x2="384.693" y2="359.959"/>
		<line fill="none" stroke="#FFFFFF" stroke-miterlimit="10" x1="382.193" y1="331.709" x2="382.193" y2="359.959"/>
		<rect x="378.111" y="85.834" fill="none" stroke="#FFFFFF" stroke-miterlimit="10" width="22.208" height="47.583"/>
		<line fill="none" stroke="#FFFFFF" stroke-miterlimit="10" x1="400.318" y1="87.333" x2="378.111" y2="130.083"/>
		<line fill="none" stroke="#FFFFFF" stroke-miterlimit="10" x1="400.318" y1="90.667" x2="378.443" y2="132.834"/>
		<g>
			<line fill="none" stroke="#FFFFFF" stroke-miterlimit="10" x1="399.279" y1="134.834" x2="378.111" y2="175.584"/>
			<line fill="none" stroke="#FFFFFF" stroke-miterlimit="10" x1="400.318" y1="136.167" x2="378.443" y2="178.335"/>
			<rect x="378.111" y="134.834" fill="none" stroke="#FFFFFF" stroke-miterlimit="10" width="22.208" height="43.75"/>
		</g>
		<g>
			<line fill="none" stroke="#FFFFFF" stroke-miterlimit="10" x1="399.279" y1="179.959" x2="378.111" y2="220.709"/>
			<line fill="none" stroke="#FFFFFF" stroke-miterlimit="10" x1="400.318" y1="181.292" x2="378.443" y2="223.46"/>
			<rect x="378.111" y="179.959" fill="none" stroke="#FFFFFF" stroke-miterlimit="10" width="22.208" height="43.75"/>
		</g>
		<g>
			<line fill="none" stroke="#FFFFFF" stroke-miterlimit="10" x1="399.279" y1="225.166" x2="378.111" y2="265.916"/>
			<line fill="none" stroke="#FFFFFF" stroke-miterlimit="10" x1="400.318" y1="226.5" x2="378.443" y2="268.667"/>
			<rect x="378.111" y="225.166" fill="none" stroke="#FFFFFF" stroke-miterlimit="10" width="22.208" height="43.75"/>
		</g>
		<g>
			<line fill="none" stroke="#FFFFFF" stroke-miterlimit="10" x1="399.238" y1="269.959" x2="378.068" y2="310.709"/>
			<line fill="none" stroke="#FFFFFF" stroke-miterlimit="10" x1="400.277" y1="271.293" x2="378.402" y2="313.46"/>
			<rect x="378.068" y="269.959" fill="none" stroke="#FFFFFF" stroke-miterlimit="10" width="22.209" height="43.75"/>
		</g>
	</g>
	<g>
		<rect x="406.818" y="84.506" fill="none" stroke="#FFFFFF" stroke-miterlimit="10" width="24.762" height="275.453"/>
		<rect x="402.068" y="356.334" fill="none" stroke="#FFFFFF" stroke-miterlimit="10" width="35" height="3.625"/>
		<rect x="408.568" y="313.709" fill="none" stroke="#FFFFFF" stroke-miterlimit="10" width="22.291" height="46.25"/>
		<rect x="402.068" y="328.959" fill="none" stroke="#FFFFFF" stroke-miterlimit="10" width="22.125" height="2.75"/>
		<rect x="402.068" y="344.834" fill="none" stroke="#FFFFFF" stroke-miterlimit="10" width="22.125" height="2.25"/>
		<rect x="402.068" y="313.709" fill="none" stroke="#FFFFFF" stroke-miterlimit="10" width="28.375" height="2.375"/>
		<rect x="426.693" y="328.959" fill="none" stroke="#FFFFFF" stroke-miterlimit="10" width="6.75" height="2.75"/>
		<rect x="426.693" y="344.834" fill="none" stroke="#FFFFFF" stroke-miterlimit="10" width="6.75" height="2.25"/>
		<line fill="none" stroke="#FFFFFF" stroke-miterlimit="10" x1="429.568" y1="316.084" x2="424.193" y2="328.959"/>
		<path fill="none" stroke="#FFFFFF" stroke-miterlimit="10" d="M426.693,328.959"/>
		<path fill="none" stroke="#FFFFFF" stroke-miterlimit="10" d="M430.443,320.084"/>
		<line fill="none" stroke="#FFFFFF" stroke-miterlimit="10" x1="424.193" y1="331.709" x2="424.193" y2="359.959"/>
		<line fill="none" stroke="#FFFFFF" stroke-miterlimit="10" x1="426.693" y1="331.709" x2="426.693" y2="359.959"/>
		<rect x="408.568" y="85.835" fill="none" stroke="#FFFFFF" stroke-miterlimit="10" width="22.207" height="47.583"/>
		<line fill="none" stroke="#FFFFFF" stroke-miterlimit="10" x1="408.568" y1="87.333" x2="430.775" y2="130.083"/>
		<line fill="none" stroke="#FFFFFF" stroke-miterlimit="10" x1="408.568" y1="90.667" x2="430.443" y2="132.834"/>
		<g>
			<line fill="none" stroke="#FFFFFF" stroke-miterlimit="10" x1="409.607" y1="134.834" x2="430.775" y2="175.584"/>
			<line fill="none" stroke="#FFFFFF" stroke-miterlimit="10" x1="408.568" y1="136.168" x2="430.443" y2="178.335"/>
			<rect x="408.568" y="134.834" fill="none" stroke="#FFFFFF" stroke-miterlimit="10" width="22.207" height="43.75"/>
		</g>
		<g>
			<line fill="none" stroke="#FFFFFF" stroke-miterlimit="10" x1="409.607" y1="179.959" x2="430.775" y2="220.709"/>
			<line fill="none" stroke="#FFFFFF" stroke-miterlimit="10" x1="408.568" y1="181.293" x2="430.443" y2="223.46"/>
			<rect x="408.568" y="179.959" fill="none" stroke="#FFFFFF" stroke-miterlimit="10" width="22.207" height="43.75"/>
		</g>
		<g>
			<line fill="none" stroke="#FFFFFF" stroke-miterlimit="10" x1="409.607" y1="225.167" x2="430.775" y2="265.916"/>
			<line fill="none" stroke="#FFFFFF" stroke-miterlimit="10" x1="408.568" y1="226.5" x2="430.443" y2="268.668"/>
			<rect x="408.568" y="225.167" fill="none" stroke="#FFFFFF" stroke-miterlimit="10" width="22.207" height="43.75"/>
		</g>
		<g>
			<line fill="none" stroke="#FFFFFF" stroke-miterlimit="10" x1="409.648" y1="269.959" x2="430.817" y2="310.709"/>
			<line fill="none" stroke="#FFFFFF" stroke-miterlimit="10" x1="408.609" y1="271.293" x2="430.484" y2="313.461"/>
			<rect x="408.609" y="269.959" fill="none" stroke="#FFFFFF" stroke-miterlimit="10" width="22.208" height="43.75"/>
		</g>
	</g>
	<rect id="Aisle_6" x="531.236" y="66.834" fill="none" stroke="#FFFFFF" stroke-miterlimit="10" width="40.875" height="293.125"/>
	<g>
		<rect x="504.611" y="84.506" fill="none" stroke="#FFFFFF" stroke-miterlimit="10" width="24.762" height="275.453"/>
		<rect x="499.861" y="356.334" fill="none" stroke="#FFFFFF" stroke-miterlimit="10" width="35" height="3.625"/>
		<rect x="506.361" y="313.709" fill="none" stroke="#FFFFFF" stroke-miterlimit="10" width="22.291" height="46.25"/>
		<rect x="499.861" y="328.959" fill="none" stroke="#FFFFFF" stroke-miterlimit="10" width="22.125" height="2.75"/>
		<rect x="499.861" y="344.834" fill="none" stroke="#FFFFFF" stroke-miterlimit="10" width="22.125" height="2.25"/>
		<rect x="499.861" y="313.709" fill="none" stroke="#FFFFFF" stroke-miterlimit="10" width="28.375" height="2.375"/>
		<rect x="524.486" y="328.959" fill="none" stroke="#FFFFFF" stroke-miterlimit="10" width="6.75" height="2.75"/>
		<rect x="524.486" y="344.834" fill="none" stroke="#FFFFFF" stroke-miterlimit="10" width="6.75" height="2.25"/>
		<line fill="none" stroke="#FFFFFF" stroke-miterlimit="10" x1="527.361" y1="316.084" x2="521.986" y2="328.959"/>
		<path fill="none" stroke="#FFFFFF" stroke-miterlimit="10" d="M524.486,328.959"/>
		<path fill="none" stroke="#FFFFFF" stroke-miterlimit="10" d="M528.236,320.084"/>
		<line fill="none" stroke="#FFFFFF" stroke-miterlimit="10" x1="521.986" y1="331.709" x2="521.986" y2="359.959"/>
		<line fill="none" stroke="#FFFFFF" stroke-miterlimit="10" x1="524.486" y1="331.709" x2="524.486" y2="359.959"/>
		<rect x="506.361" y="85.834" fill="none" stroke="#FFFFFF" stroke-miterlimit="10" width="22.207" height="47.583"/>
		<line fill="none" stroke="#FFFFFF" stroke-miterlimit="10" x1="506.361" y1="87.333" x2="528.568" y2="130.083"/>
		<line fill="none" stroke="#FFFFFF" stroke-miterlimit="10" x1="506.361" y1="90.667" x2="528.236" y2="132.834"/>
		<g>
			<line fill="none" stroke="#FFFFFF" stroke-miterlimit="10" x1="507.4" y1="134.834" x2="528.568" y2="175.584"/>
			<line fill="none" stroke="#FFFFFF" stroke-miterlimit="10" x1="506.361" y1="136.167" x2="528.236" y2="178.335"/>
			<rect x="506.361" y="134.834" fill="none" stroke="#FFFFFF" stroke-miterlimit="10" width="22.207" height="43.75"/>
		</g>
		<g>
			<line fill="none" stroke="#FFFFFF" stroke-miterlimit="10" x1="507.4" y1="179.959" x2="528.568" y2="220.709"/>
			<line fill="none" stroke="#FFFFFF" stroke-miterlimit="10" x1="506.361" y1="181.292" x2="528.236" y2="223.46"/>
			<rect x="506.361" y="179.959" fill="none" stroke="#FFFFFF" stroke-miterlimit="10" width="22.207" height="43.75"/>
		</g>
		<g>
			<line fill="none" stroke="#FFFFFF" stroke-miterlimit="10" x1="507.4" y1="225.166" x2="528.568" y2="265.916"/>
			<line fill="none" stroke="#FFFFFF" stroke-miterlimit="10" x1="506.361" y1="226.5" x2="528.236" y2="268.667"/>
			<rect x="506.361" y="225.166" fill="none" stroke="#FFFFFF" stroke-miterlimit="10" width="22.207" height="43.75"/>
		</g>
		<g>
			<line fill="none" stroke="#FFFFFF" stroke-miterlimit="10" x1="507.441" y1="269.959" x2="528.61" y2="310.709"/>
			<line fill="none" stroke="#FFFFFF" stroke-miterlimit="10" x1="506.402" y1="271.293" x2="528.277" y2="313.46"/>
			<rect x="506.402" y="269.959" fill="none" stroke="#FFFFFF" stroke-miterlimit="10" width="22.208" height="43.75"/>
		</g>
	</g>
	<g>
		<rect x="475.35" y="84.506" fill="none" stroke="#FFFFFF" stroke-miterlimit="10" width="24.763" height="275.453"/>
		<rect x="469.861" y="356.334" fill="none" stroke="#FFFFFF" stroke-miterlimit="10" width="35" height="3.625"/>
		<rect x="476.07" y="313.709" fill="none" stroke="#FFFFFF" stroke-miterlimit="10" width="22.291" height="46.25"/>
		<rect x="482.736" y="328.959" fill="none" stroke="#FFFFFF" stroke-miterlimit="10" width="22.125" height="2.75"/>
		<rect x="482.736" y="344.834" fill="none" stroke="#FFFFFF" stroke-miterlimit="10" width="22.125" height="2.25"/>
		<rect x="476.486" y="313.709" fill="none" stroke="#FFFFFF" stroke-miterlimit="10" width="28.375" height="2.375"/>
		<rect x="473.486" y="328.959" fill="none" stroke="#FFFFFF" stroke-miterlimit="10" width="6.75" height="2.75"/>
		<rect x="473.486" y="344.834" fill="none" stroke="#FFFFFF" stroke-miterlimit="10" width="6.75" height="2.25"/>
		<line fill="none" stroke="#FFFFFF" stroke-miterlimit="10" x1="477.361" y1="316.084" x2="482.736" y2="328.959"/>
		<path fill="none" stroke="#FFFFFF" stroke-miterlimit="10" d="M480.236,328.959"/>
		<path fill="none" stroke="#FFFFFF" stroke-miterlimit="10" d="M476.486,320.084"/>
		<line fill="none" stroke="#FFFFFF" stroke-miterlimit="10" x1="482.736" y1="331.709" x2="482.736" y2="359.959"/>
		<line fill="none" stroke="#FFFFFF" stroke-miterlimit="10" x1="480.236" y1="331.709" x2="480.236" y2="359.959"/>
		<rect x="476.154" y="85.834" fill="none" stroke="#FFFFFF" stroke-miterlimit="10" width="22.207" height="47.583"/>
		<line fill="none" stroke="#FFFFFF" stroke-miterlimit="10" x1="498.361" y1="87.333" x2="476.154" y2="130.083"/>
		<line fill="none" stroke="#FFFFFF" stroke-miterlimit="10" x1="498.361" y1="90.667" x2="476.486" y2="132.834"/>
		<g>
			<line fill="none" stroke="#FFFFFF" stroke-miterlimit="10" x1="497.322" y1="134.834" x2="476.154" y2="175.584"/>
			<line fill="none" stroke="#FFFFFF" stroke-miterlimit="10" x1="498.361" y1="136.167" x2="476.486" y2="178.335"/>
			<rect x="476.154" y="134.834" fill="none" stroke="#FFFFFF" stroke-miterlimit="10" width="22.207" height="43.75"/>
		</g>
		<g>
			<line fill="none" stroke="#FFFFFF" stroke-miterlimit="10" x1="497.322" y1="179.959" x2="476.154" y2="220.709"/>
			<line fill="none" stroke="#FFFFFF" stroke-miterlimit="10" x1="498.361" y1="181.292" x2="476.486" y2="223.46"/>
			<rect x="476.154" y="179.959" fill="none" stroke="#FFFFFF" stroke-miterlimit="10" width="22.207" height="43.75"/>
		</g>
		<g>
			<line fill="none" stroke="#FFFFFF" stroke-miterlimit="10" x1="497.322" y1="225.166" x2="476.154" y2="265.916"/>
			<line fill="none" stroke="#FFFFFF" stroke-miterlimit="10" x1="498.361" y1="226.5" x2="476.486" y2="268.667"/>
			<rect x="476.154" y="225.166" fill="none" stroke="#FFFFFF" stroke-miterlimit="10" width="22.207" height="43.75"/>
		</g>
		<g>
			<line fill="none" stroke="#FFFFFF" stroke-miterlimit="10" x1="497.281" y1="269.959" x2="476.112" y2="310.709"/>
			<line fill="none" stroke="#FFFFFF" stroke-miterlimit="10" x1="498.32" y1="271.293" x2="476.445" y2="313.46"/>
			<rect x="476.112" y="269.959" fill="none" stroke="#FFFFFF" stroke-miterlimit="10" width="22.208" height="43.75"/>
		</g>
	</g>
	<g>
		<rect x="574.35" y="84.506" fill="none" stroke="#FFFFFF" stroke-miterlimit="10" width="24.763" height="275.453"/>
		<rect x="568.861" y="356.334" fill="none" stroke="#FFFFFF" stroke-miterlimit="10" width="35" height="3.625"/>
		<rect x="575.07" y="313.709" fill="none" stroke="#FFFFFF" stroke-miterlimit="10" width="22.291" height="46.25"/>
		<rect x="581.736" y="328.959" fill="none" stroke="#FFFFFF" stroke-miterlimit="10" width="22.125" height="2.75"/>
		<rect x="581.736" y="344.834" fill="none" stroke="#FFFFFF" stroke-miterlimit="10" width="22.125" height="2.25"/>
		<rect x="575.486" y="313.709" fill="none" stroke="#FFFFFF" stroke-miterlimit="10" width="28.375" height="2.375"/>
		<rect x="572.486" y="328.959" fill="none" stroke="#FFFFFF" stroke-miterlimit="10" width="6.75" height="2.75"/>
		<rect x="572.486" y="344.834" fill="none" stroke="#FFFFFF" stroke-miterlimit="10" width="6.75" height="2.25"/>
		<line fill="none" stroke="#FFFFFF" stroke-miterlimit="10" x1="576.361" y1="316.084" x2="581.736" y2="328.959"/>
		<path fill="none" stroke="#FFFFFF" stroke-miterlimit="10" d="M579.236,328.959"/>
		<path fill="none" stroke="#FFFFFF" stroke-miterlimit="10" d="M575.486,320.084"/>
		<line fill="none" stroke="#FFFFFF" stroke-miterlimit="10" x1="581.736" y1="331.709" x2="581.736" y2="359.959"/>
		<line fill="none" stroke="#FFFFFF" stroke-miterlimit="10" x1="579.236" y1="331.709" x2="579.236" y2="359.959"/>
		<rect x="575.154" y="85.834" fill="none" stroke="#FFFFFF" stroke-miterlimit="10" width="22.207" height="47.583"/>
		<line fill="none" stroke="#FFFFFF" stroke-miterlimit="10" x1="597.361" y1="87.333" x2="575.154" y2="130.083"/>
		<line fill="none" stroke="#FFFFFF" stroke-miterlimit="10" x1="597.361" y1="90.667" x2="575.486" y2="132.834"/>
		<g>
			<line fill="none" stroke="#FFFFFF" stroke-miterlimit="10" x1="596.322" y1="134.834" x2="575.154" y2="175.584"/>
			<line fill="none" stroke="#FFFFFF" stroke-miterlimit="10" x1="597.361" y1="136.167" x2="575.486" y2="178.335"/>
			<rect x="575.154" y="134.834" fill="none" stroke="#FFFFFF" stroke-miterlimit="10" width="22.207" height="43.75"/>
		</g>
		<g>
			<line fill="none" stroke="#FFFFFF" stroke-miterlimit="10" x1="596.322" y1="179.959" x2="575.154" y2="220.709"/>
			<line fill="none" stroke="#FFFFFF" stroke-miterlimit="10" x1="597.361" y1="181.292" x2="575.486" y2="223.46"/>
			<rect x="575.154" y="179.959" fill="none" stroke="#FFFFFF" stroke-miterlimit="10" width="22.207" height="43.75"/>
		</g>
		<g>
			<line fill="none" stroke="#FFFFFF" stroke-miterlimit="10" x1="596.322" y1="225.166" x2="575.154" y2="265.916"/>
			<line fill="none" stroke="#FFFFFF" stroke-miterlimit="10" x1="597.361" y1="226.5" x2="575.486" y2="268.667"/>
			<rect x="575.154" y="225.166" fill="none" stroke="#FFFFFF" stroke-miterlimit="10" width="22.207" height="43.75"/>
		</g>
		<g>
			<line fill="none" stroke="#FFFFFF" stroke-miterlimit="10" x1="596.281" y1="269.959" x2="575.112" y2="310.709"/>
			<line fill="none" stroke="#FFFFFF" stroke-miterlimit="10" x1="597.32" y1="271.293" x2="575.445" y2="313.46"/>
			<rect x="575.112" y="269.959" fill="none" stroke="#FFFFFF" stroke-miterlimit="10" width="22.208" height="43.75"/>
		</g>
	</g>
	<rect x="6.936" y="30.584" fill="none" stroke="#FFFFFF" stroke-width="3" stroke-miterlimit="10" width="596.926" height="25"/>
	<rect x="290.688" y="56.584" fill="none" stroke="#FFFFFF" stroke-width="2" stroke-miterlimit="10" width="30.253" height="14"/>
	
		<rect x="377.307" y="56.584" fill="none" stroke="#FFFFFF" stroke-width="2" stroke-miterlimit="10" width="24.762" height="12.5"/>
	
		<rect x="489.557" y="57.334" fill="none" stroke="#FFFFFF" stroke-width="2" stroke-miterlimit="10" width="29.638" height="13.25"/>
	
		<rect x="575.154" y="56.209" fill="none" stroke="#FFFFFF" stroke-width="2" stroke-miterlimit="10" width="23.957" height="13.25"/>
	<g>
		<line fill="none" stroke="#FFFFFF" stroke-width="2" stroke-miterlimit="10" x1="604.465" y1="30.584" x2="581.602" y2="54.012"/>
		<line fill="none" stroke="#FFFFFF" stroke-width="2" stroke-miterlimit="10" x1="581.602" y1="55.584" x2="556.46" y2="30.584"/>
	</g>
	<g>
		<line fill="none" stroke="#FFFFFF" stroke-width="2" stroke-miterlimit="10" x1="558.398" y1="30.584" x2="535.535" y2="54.012"/>
		<line fill="none" stroke="#FFFFFF" stroke-width="2" stroke-miterlimit="10" x1="535.535" y1="55.584" x2="510.395" y2="30.584"/>
	</g>
	<g>
		<line fill="none" stroke="#FFFFFF" stroke-width="2" stroke-miterlimit="10" x1="512.657" y1="30.584" x2="489.793" y2="54.012"/>
		<line fill="none" stroke="#FFFFFF" stroke-width="2" stroke-miterlimit="10" x1="489.793" y1="55.584" x2="464.652" y2="30.584"/>
	</g>
	<g>
		<line fill="none" stroke="#FFFFFF" stroke-width="2" stroke-miterlimit="10" x1="468.162" y1="30.584" x2="445.299" y2="54.012"/>
		<line fill="none" stroke="#FFFFFF" stroke-width="2" stroke-miterlimit="10" x1="445.299" y1="55.584" x2="420.157" y2="30.584"/>
	</g>
	<g>
		<line fill="none" stroke="#FFFFFF" stroke-width="2" stroke-miterlimit="10" x1="421.55" y1="30.584" x2="398.688" y2="54.012"/>
		<line fill="none" stroke="#FFFFFF" stroke-width="2" stroke-miterlimit="10" x1="398.688" y1="55.584" x2="373.546" y2="30.584"/>
	</g>
	<g>
		<line fill="none" stroke="#FFFFFF" stroke-width="2" stroke-miterlimit="10" x1="375.2" y1="30.584" x2="352.336" y2="54.012"/>
		<line fill="none" stroke="#FFFFFF" stroke-width="2" stroke-miterlimit="10" x1="352.336" y1="55.584" x2="327.195" y2="30.584"/>
	</g>
	<g>
		<line fill="none" stroke="#FFFFFF" stroke-width="2" stroke-miterlimit="10" x1="330.213" y1="30.584" x2="307.35" y2="54.012"/>
		<line fill="none" stroke="#FFFFFF" stroke-width="2" stroke-miterlimit="10" x1="307.35" y1="55.584" x2="282.208" y2="30.584"/>
	</g>
	<g>
		<line fill="none" stroke="#FFFFFF" stroke-width="2" stroke-miterlimit="10" x1="284.125" y1="30.584" x2="261.261" y2="54.012"/>
		<line fill="none" stroke="#FFFFFF" stroke-width="2" stroke-miterlimit="10" x1="261.261" y1="55.584" x2="236.12" y2="30.584"/>
	</g>
	<g>
		<line fill="none" stroke="#FFFFFF" stroke-width="2" stroke-miterlimit="10" x1="240.021" y1="30.584" x2="217.157" y2="54.012"/>
		<line fill="none" stroke="#FFFFFF" stroke-width="2" stroke-miterlimit="10" x1="217.157" y1="55.584" x2="192.016" y2="30.584"/>
	</g>
	<g>
		<line fill="none" stroke="#FFFFFF" stroke-width="2" stroke-miterlimit="10" x1="195.231" y1="30.584" x2="172.367" y2="54.012"/>
		<line fill="none" stroke="#FFFFFF" stroke-width="2" stroke-miterlimit="10" x1="172.367" y1="55.584" x2="147.227" y2="30.584"/>
	</g>
	<g>
		<line fill="none" stroke="#FFFFFF" stroke-width="2" stroke-miterlimit="10" x1="147.227" y1="30.584" x2="124.363" y2="54.012"/>
		<line fill="none" stroke="#FFFFFF" stroke-width="2" stroke-miterlimit="10" x1="124.363" y1="55.584" x2="99.222" y2="30.584"/>
	</g>
	<g>
		<line fill="none" stroke="#FFFFFF" stroke-width="2" stroke-miterlimit="10" x1="100.623" y1="30.584" x2="77.759" y2="54.012"/>
		<line fill="none" stroke="#FFFFFF" stroke-width="2" stroke-miterlimit="10" x1="77.759" y1="55.584" x2="52.618" y2="30.584"/>
	</g>
	<g>
		<line fill="none" stroke="#FFFFFF" stroke-width="2" stroke-miterlimit="10" x1="55.127" y1="30.584" x2="32.263" y2="54.012"/>
		<line fill="none" stroke="#FFFFFF" stroke-width="2" stroke-miterlimit="10" x1="32.263" y1="55.584" x2="7.122" y2="30.584"/>
	</g>
	
		<rect x="6.936" y="20.334" fill="none" stroke="#FFFFFF" stroke-width="2" stroke-miterlimit="10" width="596.926" height="4.667"/>
	
		<rect x="603.861" y="13.333" fill="none" stroke="#FFFFFF" stroke-width="2" stroke-miterlimit="10" width="6.248" height="346.625"/>
	<line fill="none" stroke="#FFFFFF" stroke-miterlimit="10" x1="290.688" y1="56.584" x2="320.941" y2="70.584"/>
	<line fill="none" stroke="#FFFFFF" stroke-miterlimit="10" x1="291.693" y1="70.584" x2="320.941" y2="56.584"/>
	<line fill="none" stroke="#FFFFFF" stroke-miterlimit="10" x1="377.307" y1="56.584" x2="402.068" y2="69.084"/>
	<line fill="none" stroke="#FFFFFF" stroke-miterlimit="10" x1="377.307" y1="69.084" x2="400.318" y2="57.334"/>
	<line fill="none" stroke="#FFFFFF" stroke-miterlimit="10" x1="489.557" y1="57.334" x2="519.193" y2="70.584"/>
	<line fill="none" stroke="#FFFFFF" stroke-miterlimit="10" x1="489.557" y1="70.584" x2="519.193" y2="57.334"/>
	<line fill="none" stroke="#FFFFFF" stroke-miterlimit="10" x1="575.486" y1="57.334" x2="599.111" y2="69.459"/>
	<line fill="none" stroke="#FFFFFF" stroke-miterlimit="10" x1="575.154" y1="69.459" x2="597.361" y2="57.334"/>
	<rect id="Aisle_2" x="137.311" y="66.834" fill="none" stroke="#FFFFFF" stroke-miterlimit="10" width="40.043" height="293.125"/>
	<rect id="Aisle_3" x="235.729" y="66.834" fill="none" stroke="#FFFFFF" stroke-miterlimit="10" width="40.875" height="293.125"/>
	<g>
		<rect x="278.466" y="84.506" fill="none" stroke="#FFFFFF" stroke-miterlimit="10" width="24.762" height="275.453"/>
		<rect x="272.979" y="356.334" fill="none" stroke="#FFFFFF" stroke-miterlimit="10" width="35" height="3.625"/>
		<rect x="279.188" y="313.709" fill="none" stroke="#FFFFFF" stroke-miterlimit="10" width="22.291" height="46.25"/>
		<rect x="285.854" y="328.959" fill="none" stroke="#FFFFFF" stroke-miterlimit="10" width="22.125" height="2.75"/>
		<rect x="285.854" y="344.834" fill="none" stroke="#FFFFFF" stroke-miterlimit="10" width="22.125" height="2.25"/>
		<rect x="279.604" y="313.709" fill="none" stroke="#FFFFFF" stroke-miterlimit="10" width="28.375" height="2.375"/>
		<rect x="276.604" y="328.959" fill="none" stroke="#FFFFFF" stroke-miterlimit="10" width="6.75" height="2.75"/>
		<rect x="276.604" y="344.834" fill="none" stroke="#FFFFFF" stroke-miterlimit="10" width="6.75" height="2.25"/>
		<line fill="none" stroke="#FFFFFF" stroke-miterlimit="10" x1="280.479" y1="316.084" x2="285.854" y2="328.959"/>
		<path fill="none" stroke="#FFFFFF" stroke-miterlimit="10" d="M283.354,328.959"/>
		<path fill="none" stroke="#FFFFFF" stroke-miterlimit="10" d="M279.604,320.084"/>
		<line fill="none" stroke="#FFFFFF" stroke-miterlimit="10" x1="285.854" y1="331.709" x2="285.854" y2="359.959"/>
		<line fill="none" stroke="#FFFFFF" stroke-miterlimit="10" x1="283.354" y1="331.709" x2="283.354" y2="359.959"/>
		<rect x="279.271" y="85.834" fill="none" stroke="#FFFFFF" stroke-miterlimit="10" width="22.208" height="47.583"/>
		<line fill="none" stroke="#FFFFFF" stroke-miterlimit="10" x1="301.479" y1="87.333" x2="279.271" y2="130.083"/>
		<line fill="none" stroke="#FFFFFF" stroke-miterlimit="10" x1="301.479" y1="90.667" x2="279.604" y2="132.834"/>
		<g>
			<line fill="none" stroke="#FFFFFF" stroke-miterlimit="10" x1="300.439" y1="134.834" x2="279.271" y2="175.584"/>
			<line fill="none" stroke="#FFFFFF" stroke-miterlimit="10" x1="301.479" y1="136.167" x2="279.604" y2="178.335"/>
			<rect x="279.271" y="134.834" fill="none" stroke="#FFFFFF" stroke-miterlimit="10" width="22.208" height="43.75"/>
		</g>
		<g>
			<line fill="none" stroke="#FFFFFF" stroke-miterlimit="10" x1="300.439" y1="179.959" x2="279.271" y2="220.709"/>
			<line fill="none" stroke="#FFFFFF" stroke-miterlimit="10" x1="301.479" y1="181.292" x2="279.604" y2="223.46"/>
			<rect x="279.271" y="179.959" fill="none" stroke="#FFFFFF" stroke-miterlimit="10" width="22.208" height="43.75"/>
		</g>
		<g>
			<line fill="none" stroke="#FFFFFF" stroke-miterlimit="10" x1="300.439" y1="225.166" x2="279.271" y2="265.916"/>
			<line fill="none" stroke="#FFFFFF" stroke-miterlimit="10" x1="301.479" y1="226.5" x2="279.604" y2="268.667"/>
			<rect x="279.271" y="225.166" fill="none" stroke="#FFFFFF" stroke-miterlimit="10" width="22.208" height="43.75"/>
		</g>
		<g>
			<line fill="none" stroke="#FFFFFF" stroke-miterlimit="10" x1="300.398" y1="269.959" x2="279.229" y2="310.709"/>
			<line fill="none" stroke="#FFFFFF" stroke-miterlimit="10" x1="301.437" y1="271.293" x2="279.562" y2="313.46"/>
			<rect x="279.229" y="269.959" fill="none" stroke="#FFFFFF" stroke-miterlimit="10" width="22.208" height="43.75"/>
		</g>
	</g>
	<g>
		<rect x="208.729" y="84.506" fill="none" stroke="#FFFFFF" stroke-miterlimit="10" width="24.762" height="275.453"/>
		<rect x="203.979" y="356.334" fill="none" stroke="#FFFFFF" stroke-miterlimit="10" width="35" height="3.625"/>
		<rect x="210.479" y="313.709" fill="none" stroke="#FFFFFF" stroke-miterlimit="10" width="22.291" height="46.25"/>
		<rect x="203.979" y="328.959" fill="none" stroke="#FFFFFF" stroke-miterlimit="10" width="22.125" height="2.75"/>
		<rect x="203.979" y="344.834" fill="none" stroke="#FFFFFF" stroke-miterlimit="10" width="22.125" height="2.25"/>
		<rect x="203.979" y="313.709" fill="none" stroke="#FFFFFF" stroke-miterlimit="10" width="28.375" height="2.375"/>
		<rect x="228.604" y="328.959" fill="none" stroke="#FFFFFF" stroke-miterlimit="10" width="6.75" height="2.75"/>
		<rect x="228.604" y="344.834" fill="none" stroke="#FFFFFF" stroke-miterlimit="10" width="6.75" height="2.25"/>
		<line fill="none" stroke="#FFFFFF" stroke-miterlimit="10" x1="231.479" y1="316.084" x2="226.104" y2="328.959"/>
		<path fill="none" stroke="#FFFFFF" stroke-miterlimit="10" d="M228.604,328.959"/>
		<path fill="none" stroke="#FFFFFF" stroke-miterlimit="10" d="M232.354,320.084"/>
		<line fill="none" stroke="#FFFFFF" stroke-miterlimit="10" x1="226.104" y1="331.709" x2="226.104" y2="359.959"/>
		<line fill="none" stroke="#FFFFFF" stroke-miterlimit="10" x1="228.604" y1="331.709" x2="228.604" y2="359.959"/>
		<rect x="210.479" y="85.834" fill="none" stroke="#FFFFFF" stroke-miterlimit="10" width="22.208" height="47.583"/>
		<line fill="none" stroke="#FFFFFF" stroke-miterlimit="10" x1="210.479" y1="87.333" x2="232.686" y2="130.083"/>
		<line fill="none" stroke="#FFFFFF" stroke-miterlimit="10" x1="210.479" y1="90.667" x2="232.354" y2="132.834"/>
		<g>
			<line fill="none" stroke="#FFFFFF" stroke-miterlimit="10" x1="211.518" y1="134.834" x2="232.686" y2="175.584"/>
			<line fill="none" stroke="#FFFFFF" stroke-miterlimit="10" x1="210.479" y1="136.167" x2="232.354" y2="178.335"/>
			<rect x="210.479" y="134.834" fill="none" stroke="#FFFFFF" stroke-miterlimit="10" width="22.208" height="43.75"/>
		</g>
		<g>
			<line fill="none" stroke="#FFFFFF" stroke-miterlimit="10" x1="211.518" y1="179.959" x2="232.686" y2="220.709"/>
			<line fill="none" stroke="#FFFFFF" stroke-miterlimit="10" x1="210.479" y1="181.292" x2="232.354" y2="223.46"/>
			<rect x="210.479" y="179.959" fill="none" stroke="#FFFFFF" stroke-miterlimit="10" width="22.208" height="43.75"/>
		</g>
		<g>
			<line fill="none" stroke="#FFFFFF" stroke-miterlimit="10" x1="211.518" y1="225.166" x2="232.686" y2="265.916"/>
			<line fill="none" stroke="#FFFFFF" stroke-miterlimit="10" x1="210.479" y1="226.5" x2="232.354" y2="268.667"/>
			<rect x="210.479" y="225.166" fill="none" stroke="#FFFFFF" stroke-miterlimit="10" width="22.208" height="43.75"/>
		</g>
		<g>
			<line fill="none" stroke="#FFFFFF" stroke-miterlimit="10" x1="211.559" y1="269.959" x2="232.728" y2="310.709"/>
			<line fill="none" stroke="#FFFFFF" stroke-miterlimit="10" x1="210.52" y1="271.293" x2="232.395" y2="313.46"/>
			<rect x="210.52" y="269.959" fill="none" stroke="#FFFFFF" stroke-miterlimit="10" width="22.208" height="43.75"/>
		</g>
	</g>
	<g>
		<rect x="179.217" y="84.506" fill="none" stroke="#FFFFFF" stroke-miterlimit="10" width="24.762" height="275.453"/>
		<rect x="173.729" y="356.334" fill="none" stroke="#FFFFFF" stroke-miterlimit="10" width="35" height="3.625"/>
		<rect x="179.938" y="313.709" fill="none" stroke="#FFFFFF" stroke-miterlimit="10" width="22.291" height="46.25"/>
		<rect x="186.604" y="328.959" fill="none" stroke="#FFFFFF" stroke-miterlimit="10" width="22.125" height="2.75"/>
		<rect x="186.604" y="344.834" fill="none" stroke="#FFFFFF" stroke-miterlimit="10" width="22.125" height="2.25"/>
		<rect x="180.354" y="313.709" fill="none" stroke="#FFFFFF" stroke-miterlimit="10" width="28.375" height="2.375"/>
		<rect x="177.354" y="328.959" fill="none" stroke="#FFFFFF" stroke-miterlimit="10" width="6.75" height="2.75"/>
		<rect x="177.354" y="344.834" fill="none" stroke="#FFFFFF" stroke-miterlimit="10" width="6.75" height="2.25"/>
		<line fill="none" stroke="#FFFFFF" stroke-miterlimit="10" x1="181.229" y1="316.084" x2="186.604" y2="328.959"/>
		<path fill="none" stroke="#FFFFFF" stroke-miterlimit="10" d="M184.104,328.959"/>
		<path fill="none" stroke="#FFFFFF" stroke-miterlimit="10" d="M180.354,320.084"/>
		<line fill="none" stroke="#FFFFFF" stroke-miterlimit="10" x1="186.604" y1="331.709" x2="186.604" y2="359.959"/>
		<line fill="none" stroke="#FFFFFF" stroke-miterlimit="10" x1="184.104" y1="331.709" x2="184.104" y2="359.959"/>
		<rect x="180.021" y="85.835" fill="none" stroke="#FFFFFF" stroke-miterlimit="10" width="22.207" height="47.583"/>
		<line fill="none" stroke="#FFFFFF" stroke-miterlimit="10" x1="202.229" y1="87.333" x2="180.021" y2="130.083"/>
		<line fill="none" stroke="#FFFFFF" stroke-miterlimit="10" x1="202.229" y1="90.667" x2="180.354" y2="132.834"/>
		<g>
			<line fill="none" stroke="#FFFFFF" stroke-miterlimit="10" x1="201.189" y1="134.834" x2="180.021" y2="175.584"/>
			<line fill="none" stroke="#FFFFFF" stroke-miterlimit="10" x1="202.229" y1="136.168" x2="180.354" y2="178.335"/>
			<rect x="180.021" y="134.834" fill="none" stroke="#FFFFFF" stroke-miterlimit="10" width="22.207" height="43.75"/>
		</g>
		<g>
			<line fill="none" stroke="#FFFFFF" stroke-miterlimit="10" x1="201.189" y1="179.959" x2="180.021" y2="220.709"/>
			<line fill="none" stroke="#FFFFFF" stroke-miterlimit="10" x1="202.229" y1="181.293" x2="180.354" y2="223.46"/>
			<rect x="180.021" y="179.959" fill="none" stroke="#FFFFFF" stroke-miterlimit="10" width="22.207" height="43.75"/>
		</g>
		<g>
			<line fill="none" stroke="#FFFFFF" stroke-miterlimit="10" x1="201.189" y1="225.167" x2="180.021" y2="265.916"/>
			<line fill="none" stroke="#FFFFFF" stroke-miterlimit="10" x1="202.229" y1="226.5" x2="180.354" y2="268.668"/>
			<rect x="180.021" y="225.167" fill="none" stroke="#FFFFFF" stroke-miterlimit="10" width="22.207" height="43.75"/>
		</g>
		<g>
			<line fill="none" stroke="#FFFFFF" stroke-miterlimit="10" x1="201.148" y1="269.959" x2="179.979" y2="310.709"/>
			<line fill="none" stroke="#FFFFFF" stroke-miterlimit="10" x1="202.188" y1="271.293" x2="180.312" y2="313.461"/>
			<rect x="179.979" y="269.959" fill="none" stroke="#FFFFFF" stroke-miterlimit="10" width="22.208" height="43.75"/>
		</g>
	</g>
	<rect id="Aisle_1" x="38.686" y="66.834" fill="none" stroke="#FFFFFF" stroke-miterlimit="10" width="40.875" height="293.125"/>
	<g>
		<rect x="81.424" y="84.506" fill="none" stroke="#FFFFFF" stroke-miterlimit="10" width="24.762" height="275.453"/>
		<rect x="75.936" y="356.334" fill="none" stroke="#FFFFFF" stroke-miterlimit="10" width="35" height="3.625"/>
		<rect x="82.145" y="313.709" fill="none" stroke="#FFFFFF" stroke-miterlimit="10" width="22.291" height="46.25"/>
		<rect x="88.811" y="328.959" fill="none" stroke="#FFFFFF" stroke-miterlimit="10" width="22.125" height="2.75"/>
		<rect x="88.811" y="344.834" fill="none" stroke="#FFFFFF" stroke-miterlimit="10" width="22.125" height="2.25"/>
		<rect x="82.561" y="313.709" fill="none" stroke="#FFFFFF" stroke-miterlimit="10" width="28.375" height="2.375"/>
		<rect x="79.561" y="328.959" fill="none" stroke="#FFFFFF" stroke-miterlimit="10" width="6.75" height="2.75"/>
		<rect x="79.561" y="344.834" fill="none" stroke="#FFFFFF" stroke-miterlimit="10" width="6.75" height="2.25"/>
		<line fill="none" stroke="#FFFFFF" stroke-miterlimit="10" x1="83.436" y1="316.084" x2="88.811" y2="328.959"/>
		<path fill="none" stroke="#FFFFFF" stroke-miterlimit="10" d="M86.311,328.959"/>
		<path fill="none" stroke="#FFFFFF" stroke-miterlimit="10" d="M82.561,320.084"/>
		<line fill="none" stroke="#FFFFFF" stroke-miterlimit="10" x1="88.811" y1="331.709" x2="88.811" y2="359.959"/>
		<line fill="none" stroke="#FFFFFF" stroke-miterlimit="10" x1="86.311" y1="331.709" x2="86.311" y2="359.959"/>
		<rect x="82.229" y="85.834" fill="none" stroke="#FFFFFF" stroke-miterlimit="10" width="22.207" height="47.583"/>
		<line fill="none" stroke="#FFFFFF" stroke-miterlimit="10" x1="104.436" y1="87.333" x2="82.229" y2="130.083"/>
		<line fill="none" stroke="#FFFFFF" stroke-miterlimit="10" x1="104.436" y1="90.667" x2="82.561" y2="132.834"/>
		<g>
			<line fill="none" stroke="#FFFFFF" stroke-miterlimit="10" x1="103.396" y1="134.834" x2="82.229" y2="175.584"/>
			<line fill="none" stroke="#FFFFFF" stroke-miterlimit="10" x1="104.436" y1="136.167" x2="82.561" y2="178.335"/>
			<rect x="82.229" y="134.834" fill="none" stroke="#FFFFFF" stroke-miterlimit="10" width="22.207" height="43.75"/>
		</g>
		<g>
			<line fill="none" stroke="#FFFFFF" stroke-miterlimit="10" x1="103.396" y1="179.959" x2="82.229" y2="220.709"/>
			<line fill="none" stroke="#FFFFFF" stroke-miterlimit="10" x1="104.436" y1="181.292" x2="82.561" y2="223.46"/>
			<rect x="82.229" y="179.959" fill="none" stroke="#FFFFFF" stroke-miterlimit="10" width="22.207" height="43.75"/>
		</g>
		<g>
			<line fill="none" stroke="#FFFFFF" stroke-miterlimit="10" x1="103.396" y1="225.166" x2="82.229" y2="265.916"/>
			<line fill="none" stroke="#FFFFFF" stroke-miterlimit="10" x1="104.436" y1="226.5" x2="82.561" y2="268.667"/>
			<rect x="82.229" y="225.166" fill="none" stroke="#FFFFFF" stroke-miterlimit="10" width="22.207" height="43.75"/>
		</g>
		<g>
			<line fill="none" stroke="#FFFFFF" stroke-miterlimit="10" x1="103.355" y1="269.959" x2="82.187" y2="310.709"/>
			<line fill="none" stroke="#FFFFFF" stroke-miterlimit="10" x1="104.395" y1="271.293" x2="82.52" y2="313.46"/>
			<rect x="82.187" y="269.959" fill="none" stroke="#FFFFFF" stroke-miterlimit="10" width="22.208" height="43.75"/>
		</g>
	</g>
	<g>
		<rect x="110.686" y="84.506" fill="none" stroke="#FFFFFF" stroke-miterlimit="10" width="24.762" height="275.453"/>
		<rect x="105.936" y="356.334" fill="none" stroke="#FFFFFF" stroke-miterlimit="10" width="35" height="3.625"/>
		<rect x="112.436" y="313.709" fill="none" stroke="#FFFFFF" stroke-miterlimit="10" width="22.291" height="46.25"/>
		<rect x="105.936" y="328.959" fill="none" stroke="#FFFFFF" stroke-miterlimit="10" width="22.125" height="2.75"/>
		<rect x="105.936" y="344.834" fill="none" stroke="#FFFFFF" stroke-miterlimit="10" width="22.125" height="2.25"/>
		<rect x="105.936" y="313.709" fill="none" stroke="#FFFFFF" stroke-miterlimit="10" width="28.375" height="2.375"/>
		<rect x="130.561" y="328.959" fill="none" stroke="#FFFFFF" stroke-miterlimit="10" width="6.75" height="2.75"/>
		<rect x="130.561" y="344.834" fill="none" stroke="#FFFFFF" stroke-miterlimit="10" width="6.75" height="2.25"/>
		<line fill="none" stroke="#FFFFFF" stroke-miterlimit="10" x1="133.436" y1="316.084" x2="128.061" y2="328.959"/>
		<path fill="none" stroke="#FFFFFF" stroke-miterlimit="10" d="M130.561,328.959"/>
		<path fill="none" stroke="#FFFFFF" stroke-miterlimit="10" d="M134.311,320.084"/>
		<line fill="none" stroke="#FFFFFF" stroke-miterlimit="10" x1="128.061" y1="331.709" x2="128.061" y2="359.959"/>
		<line fill="none" stroke="#FFFFFF" stroke-miterlimit="10" x1="130.561" y1="331.709" x2="130.561" y2="359.959"/>
		<rect x="112.436" y="85.834" fill="none" stroke="#FFFFFF" stroke-miterlimit="10" width="22.207" height="47.583"/>
		<line fill="none" stroke="#FFFFFF" stroke-miterlimit="10" x1="112.436" y1="87.333" x2="134.643" y2="130.083"/>
		<line fill="none" stroke="#FFFFFF" stroke-miterlimit="10" x1="112.436" y1="90.667" x2="134.311" y2="132.834"/>
		<g>
			<line fill="none" stroke="#FFFFFF" stroke-miterlimit="10" x1="113.475" y1="134.834" x2="134.643" y2="175.584"/>
			<line fill="none" stroke="#FFFFFF" stroke-miterlimit="10" x1="112.436" y1="136.167" x2="134.311" y2="178.335"/>
			<rect x="112.436" y="134.834" fill="none" stroke="#FFFFFF" stroke-miterlimit="10" width="22.207" height="43.75"/>
		</g>
		<g>
			<line fill="none" stroke="#FFFFFF" stroke-miterlimit="10" x1="113.475" y1="179.959" x2="134.643" y2="220.709"/>
			<line fill="none" stroke="#FFFFFF" stroke-miterlimit="10" x1="112.436" y1="181.292" x2="134.311" y2="223.46"/>
			<rect x="112.436" y="179.959" fill="none" stroke="#FFFFFF" stroke-miterlimit="10" width="22.207" height="43.75"/>
		</g>
		<g>
			<line fill="none" stroke="#FFFFFF" stroke-miterlimit="10" x1="113.475" y1="225.166" x2="134.643" y2="265.916"/>
			<line fill="none" stroke="#FFFFFF" stroke-miterlimit="10" x1="112.436" y1="226.5" x2="134.311" y2="268.667"/>
			<rect x="112.436" y="225.166" fill="none" stroke="#FFFFFF" stroke-miterlimit="10" width="22.207" height="43.75"/>
		</g>
		<g>
			<line fill="none" stroke="#FFFFFF" stroke-miterlimit="10" x1="113.516" y1="269.959" x2="134.685" y2="310.709"/>
			<line fill="none" stroke="#FFFFFF" stroke-miterlimit="10" x1="112.477" y1="271.293" x2="134.352" y2="313.46"/>
			<rect x="112.477" y="269.959" fill="none" stroke="#FFFFFF" stroke-miterlimit="10" width="22.208" height="43.75"/>
		</g>
	</g>
	<g>
		<rect x="11.686" y="84.506" fill="none" stroke="#FFFFFF" stroke-miterlimit="10" width="24.762" height="275.453"/>
		<rect x="6.936" y="356.334" fill="none" stroke="#FFFFFF" stroke-miterlimit="10" width="35" height="3.625"/>
		<rect x="13.436" y="313.709" fill="none" stroke="#FFFFFF" stroke-miterlimit="10" width="22.291" height="46.25"/>
		<rect x="6.936" y="328.959" fill="none" stroke="#FFFFFF" stroke-miterlimit="10" width="22.125" height="2.75"/>
		<rect x="6.936" y="344.834" fill="none" stroke="#FFFFFF" stroke-miterlimit="10" width="22.125" height="2.25"/>
		<rect x="6.936" y="313.709" fill="none" stroke="#FFFFFF" stroke-miterlimit="10" width="28.375" height="2.375"/>
		<rect x="31.561" y="328.959" fill="none" stroke="#FFFFFF" stroke-miterlimit="10" width="6.75" height="2.75"/>
		<rect x="31.561" y="344.834" fill="none" stroke="#FFFFFF" stroke-miterlimit="10" width="6.75" height="2.25"/>
		<line fill="none" stroke="#FFFFFF" stroke-miterlimit="10" x1="34.436" y1="316.084" x2="29.061" y2="328.959"/>
		<path fill="none" stroke="#FFFFFF" stroke-miterlimit="10" d="M31.561,328.959"/>
		<path fill="none" stroke="#FFFFFF" stroke-miterlimit="10" d="M35.311,320.084"/>
		<line fill="none" stroke="#FFFFFF" stroke-miterlimit="10" x1="29.061" y1="331.709" x2="29.061" y2="359.959"/>
		<line fill="none" stroke="#FFFFFF" stroke-miterlimit="10" x1="31.561" y1="331.709" x2="31.561" y2="359.959"/>
		<rect x="13.436" y="85.834" fill="none" stroke="#FFFFFF" stroke-miterlimit="10" width="22.207" height="47.583"/>
		<line fill="none" stroke="#FFFFFF" stroke-miterlimit="10" x1="13.436" y1="87.333" x2="35.643" y2="130.083"/>
		<line fill="none" stroke="#FFFFFF" stroke-miterlimit="10" x1="13.436" y1="90.667" x2="35.311" y2="132.834"/>
		<g>
			<line fill="none" stroke="#FFFFFF" stroke-miterlimit="10" x1="14.475" y1="134.834" x2="35.643" y2="175.584"/>
			<line fill="none" stroke="#FFFFFF" stroke-miterlimit="10" x1="13.436" y1="136.167" x2="35.311" y2="178.335"/>
			<rect x="13.436" y="134.834" fill="none" stroke="#FFFFFF" stroke-miterlimit="10" width="22.207" height="43.75"/>
		</g>
		<g>
			<line fill="none" stroke="#FFFFFF" stroke-miterlimit="10" x1="14.475" y1="179.959" x2="35.643" y2="220.709"/>
			<line fill="none" stroke="#FFFFFF" stroke-miterlimit="10" x1="13.436" y1="181.292" x2="35.311" y2="223.46"/>
			<rect x="13.436" y="179.959" fill="none" stroke="#FFFFFF" stroke-miterlimit="10" width="22.207" height="43.75"/>
		</g>
		<g>
			<line fill="none" stroke="#FFFFFF" stroke-miterlimit="10" x1="14.475" y1="225.166" x2="35.643" y2="265.916"/>
			<line fill="none" stroke="#FFFFFF" stroke-miterlimit="10" x1="13.436" y1="226.5" x2="35.311" y2="268.667"/>
			<rect x="13.436" y="225.166" fill="none" stroke="#FFFFFF" stroke-miterlimit="10" width="22.207" height="43.75"/>
		</g>
		<g>
			<line fill="none" stroke="#FFFFFF" stroke-miterlimit="10" x1="14.516" y1="269.959" x2="35.685" y2="310.709"/>
			<line fill="none" stroke="#FFFFFF" stroke-miterlimit="10" x1="13.477" y1="271.293" x2="35.352" y2="313.46"/>
			<rect x="13.477" y="269.959" fill="none" stroke="#FFFFFF" stroke-miterlimit="10" width="22.208" height="43.75"/>
		</g>
	</g>
	<rect x="289.855" y="56.584" fill="none" stroke="#FFFFFF" stroke-width="2" stroke-miterlimit="10" width="30.254" height="14"/>
	
		<rect x="208.729" y="56.584" fill="none" stroke="#FFFFFF" stroke-width="2" stroke-miterlimit="10" width="24.762" height="12.5"/>
	
		<rect x="91.604" y="57.334" fill="none" stroke="#FFFFFF" stroke-width="2" stroke-miterlimit="10" width="29.637" height="13.25"/>
	
		<rect x="11.686" y="56.209" fill="none" stroke="#FFFFFF" stroke-width="2" stroke-miterlimit="10" width="23.957" height="13.25"/>
	
		<rect x="0.688" y="13.333" fill="none" stroke="#FFFFFF" stroke-width="2" stroke-miterlimit="10" width="6.248" height="346.625"/>
	<line fill="none" stroke="#FFFFFF" stroke-miterlimit="10" x1="320.109" y1="56.584" x2="289.855" y2="70.584"/>
	<line fill="none" stroke="#FFFFFF" stroke-miterlimit="10" x1="319.104" y1="70.584" x2="289.855" y2="56.584"/>
	<line fill="none" stroke="#FFFFFF" stroke-miterlimit="10" x1="233.491" y1="56.584" x2="208.729" y2="69.084"/>
	<line fill="none" stroke="#FFFFFF" stroke-miterlimit="10" x1="233.491" y1="69.084" x2="210.479" y2="57.334"/>
	<line fill="none" stroke="#FFFFFF" stroke-miterlimit="10" x1="121.24" y1="57.334" x2="91.604" y2="70.584"/>
	<line fill="none" stroke="#FFFFFF" stroke-miterlimit="10" x1="121.24" y1="70.584" x2="91.604" y2="57.334"/>
	<line fill="none" stroke="#FFFFFF" stroke-miterlimit="10" x1="35.311" y1="57.334" x2="11.686" y2="69.459"/>
	<line fill="none" stroke="#FFFFFF" stroke-miterlimit="10" x1="35.643" y1="69.459" x2="13.436" y2="57.334"/>
	<line fill="none" stroke="#FFFFFF" stroke-width="2" stroke-miterlimit="10" x1="0.688" y1="359.959" x2="610.109" y2="359.959"/>
	<line fill="none" stroke="#FFFFFF" stroke-width="2" stroke-miterlimit="10" x1="-0.246" y1="367" x2="611.109" y2="367"/>
	<line fill="none" stroke="#FFFFFF" stroke-miterlimit="10" x1="579.236" y1="328.709" x2="574.723" y2="318.209"/>
	<line fill="none" stroke="#FFFFFF" stroke-miterlimit="10" x1="480.287" y1="328.83" x2="475.773" y2="318.33"/>
	<line fill="none" stroke="#FFFFFF" stroke-miterlimit="10" x1="382.193" y1="328.83" x2="377.68" y2="318.33"/>
	<line fill="none" stroke="#FFFFFF" stroke-miterlimit="10" x1="283.477" y1="328.746" x2="278.963" y2="318.246"/>
	<line fill="none" stroke="#FFFFFF" stroke-miterlimit="10" x1="184.104" y1="328.746" x2="179.59" y2="318.246"/>
	<line fill="none" stroke="#FFFFFF" stroke-miterlimit="10" x1="86.311" y1="328.746" x2="81.797" y2="318.246"/>
	<line fill="none" stroke="#FFFFFF" stroke-miterlimit="10" x1="31.525" y1="328.746" x2="36.039" y2="318.246"/>
	<line fill="none" stroke="#FFFFFF" stroke-miterlimit="10" x1="130.576" y1="328.759" x2="135.09" y2="318.259"/>
	<line fill="none" stroke="#FFFFFF" stroke-miterlimit="10" x1="228.524" y1="328.691" x2="233.038" y2="318.191"/>
	<line fill="none" stroke="#FFFFFF" stroke-miterlimit="10" x1="327.443" y1="328.691" x2="331.957" y2="318.191"/>
	<line fill="none" stroke="#FFFFFF" stroke-miterlimit="10" x1="426.693" y1="328.83" x2="431.207" y2="318.33"/>
	<line fill="none" stroke="#FFFFFF" stroke-miterlimit="10" x1="524.486" y1="328.709" x2="529" y2="318.209"/>
</g>
</svg>
