<?xml version="1.0" encoding="utf-8"?>
<!-- Generator: Adobe Illustrator 15.1.0, SVG Export Plug-In  -->
<!DOCTYPE svg PUBLIC "-//W3C//DTD SVG 1.1//EN" "http://www.w3.org/Graphics/SVG/1.1/DTD/svg11.dtd" [
	<!ENTITY ns_flows "http://ns.adobe.com/Flows/1.0/">
]>
<svg version="1.1"
	 xmlns="http://www.w3.org/2000/svg" xmlns:xlink="http://www.w3.org/1999/xlink" xmlns:a="http://ns.adobe.com/AdobeSVGViewerExtensions/3.0/"
	 x="0px" y="0px" width="611px" height="367px" viewBox="0.312 0 611 367"
	 overflow="visible" enable-background="new 0.312 0 611 367" xml:space="preserve">
<defs>
</defs>
<rect x="1.002" width="610.419" height="367"/>
<rect id="Aisle_5_1_" x="433.755" y="66.834" fill="none" stroke="#FFFFFF" stroke-miterlimit="10" width="40.043" height="293.125"/>
<rect id="Aisle_4_1_" x="334.505" y="66.834" fill="none" stroke="#FFFFFF" stroke-miterlimit="10" width="40.875" height="293.125"/>
<rect x="307.88" y="84.506" fill="none" stroke="#FFFFFF" stroke-miterlimit="10" width="24.762" height="275.453"/>
<rect x="303.13" y="356.334" fill="none" stroke="#FFFFFF" stroke-miterlimit="10" width="35" height="3.625"/>
<rect x="309.63" y="313.709" fill="none" stroke="#FFFFFF" stroke-miterlimit="10" width="22.291" height="46.25"/>
<rect x="303.13" y="328.959" fill="none" stroke="#FFFFFF" stroke-miterlimit="10" width="22.125" height="2.75"/>
<rect x="303.13" y="344.834" fill="none" stroke="#FFFFFF" stroke-miterlimit="10" width="22.125" height="2.25"/>
<rect x="303.13" y="313.709" fill="none" stroke="#FFFFFF" stroke-miterlimit="10" width="28.375" height="2.375"/>
<rect x="327.755" y="328.959" fill="none" stroke="#FFFFFF" stroke-miterlimit="10" width="6.75" height="2.75"/>
<rect x="327.755" y="344.834" fill="none" stroke="#FFFFFF" stroke-miterlimit="10" width="6.75" height="2.25"/>
<line fill="none" stroke="#FFFFFF" stroke-miterlimit="10" x1="330.63" y1="316.084" x2="325.255" y2="328.959"/>
<line fill="none" stroke="#FFFFFF" stroke-miterlimit="10" x1="325.255" y1="331.709" x2="325.255" y2="359.959"/>
<line fill="none" stroke="#FFFFFF" stroke-miterlimit="10" x1="327.755" y1="331.709" x2="327.755" y2="359.959"/>
<rect x="309.63" y="85.834" fill="none" stroke="#FFFFFF" stroke-miterlimit="10" width="22.207" height="47.583"/>
<line fill="none" stroke="#FFFFFF" stroke-miterlimit="10" x1="309.63" y1="87.333" x2="331.837" y2="130.083"/>
<line fill="none" stroke="#FFFFFF" stroke-miterlimit="10" x1="309.63" y1="90.667" x2="331.505" y2="132.834"/>
<line fill="none" stroke="#FFFFFF" stroke-miterlimit="10" x1="310.669" y1="134.834" x2="331.837" y2="175.584"/>
<line fill="none" stroke="#FFFFFF" stroke-miterlimit="10" x1="309.63" y1="136.167" x2="331.505" y2="178.335"/>
<rect x="309.63" y="134.834" fill="none" stroke="#FFFFFF" stroke-miterlimit="10" width="22.207" height="43.75"/>
<line fill="none" stroke="#FFFFFF" stroke-miterlimit="10" x1="310.669" y1="179.959" x2="331.837" y2="220.709"/>
<line fill="none" stroke="#FFFFFF" stroke-miterlimit="10" x1="309.63" y1="181.292" x2="331.505" y2="223.46"/>
<rect x="309.63" y="179.959" fill="none" stroke="#FFFFFF" stroke-miterlimit="10" width="22.207" height="43.75"/>
<line fill="none" stroke="#FFFFFF" stroke-miterlimit="10" x1="310.669" y1="225.166" x2="331.837" y2="265.916"/>
<line fill="none" stroke="#FFFFFF" stroke-miterlimit="10" x1="309.63" y1="226.5" x2="331.505" y2="268.667"/>
<rect x="309.63" y="225.166" fill="none" stroke="#FFFFFF" stroke-miterlimit="10" width="22.207" height="43.75"/>
<line fill="none" stroke="#FFFFFF" stroke-miterlimit="10" x1="310.71" y1="269.959" x2="331.878" y2="310.709"/>
<line fill="none" stroke="#FFFFFF" stroke-miterlimit="10" x1="309.671" y1="271.293" x2="331.546" y2="313.46"/>
<rect x="309.671" y="269.959" fill="none" stroke="#FFFFFF" stroke-miterlimit="10" width="22.209" height="43.75"/>
<rect x="377.619" y="84.506" fill="none" stroke="#FFFFFF" stroke-miterlimit="10" width="24.762" height="275.453"/>
<rect x="372.13" y="356.334" fill="none" stroke="#FFFFFF" stroke-miterlimit="10" width="35" height="3.625"/>
<rect x="378.34" y="313.709" fill="none" stroke="#FFFFFF" stroke-miterlimit="10" width="22.291" height="46.25"/>
<rect x="385.005" y="328.959" fill="none" stroke="#FFFFFF" stroke-miterlimit="10" width="22.125" height="2.75"/>
<rect x="385.005" y="344.834" fill="none" stroke="#FFFFFF" stroke-miterlimit="10" width="22.125" height="2.25"/>
<rect x="378.755" y="313.709" fill="none" stroke="#FFFFFF" stroke-miterlimit="10" width="28.375" height="2.375"/>
<rect x="375.755" y="328.959" fill="none" stroke="#FFFFFF" stroke-miterlimit="10" width="6.75" height="2.75"/>
<rect x="375.755" y="344.834" fill="none" stroke="#FFFFFF" stroke-miterlimit="10" width="6.75" height="2.25"/>
<line fill="none" stroke="#FFFFFF" stroke-miterlimit="10" x1="379.63" y1="316.084" x2="385.005" y2="328.959"/>
<line fill="none" stroke="#FFFFFF" stroke-miterlimit="10" x1="385.005" y1="331.709" x2="385.005" y2="359.959"/>
<line fill="none" stroke="#FFFFFF" stroke-miterlimit="10" x1="382.505" y1="331.709" x2="382.505" y2="359.959"/>
<rect x="378.423" y="85.834" fill="none" stroke="#FFFFFF" stroke-miterlimit="10" width="22.208" height="47.583"/>
<line fill="none" stroke="#FFFFFF" stroke-miterlimit="10" x1="400.63" y1="87.333" x2="378.423" y2="130.083"/>
<line fill="none" stroke="#FFFFFF" stroke-miterlimit="10" x1="400.63" y1="90.667" x2="378.755" y2="132.834"/>
<line fill="none" stroke="#FFFFFF" stroke-miterlimit="10" x1="399.591" y1="134.834" x2="378.423" y2="175.584"/>
<line fill="none" stroke="#FFFFFF" stroke-miterlimit="10" x1="400.63" y1="136.167" x2="378.755" y2="178.335"/>
<rect x="378.423" y="134.834" fill="none" stroke="#FFFFFF" stroke-miterlimit="10" width="22.208" height="43.75"/>
<line fill="none" stroke="#FFFFFF" stroke-miterlimit="10" x1="399.591" y1="179.959" x2="378.423" y2="220.709"/>
<line fill="none" stroke="#FFFFFF" stroke-miterlimit="10" x1="400.63" y1="181.292" x2="378.755" y2="223.46"/>
<rect x="378.423" y="179.959" fill="none" stroke="#FFFFFF" stroke-miterlimit="10" width="22.208" height="43.75"/>
<line fill="none" stroke="#FFFFFF" stroke-miterlimit="10" x1="399.591" y1="225.166" x2="378.423" y2="265.916"/>
<line fill="none" stroke="#FFFFFF" stroke-miterlimit="10" x1="400.63" y1="226.5" x2="378.755" y2="268.667"/>
<rect x="378.423" y="225.166" fill="none" stroke="#FFFFFF" stroke-miterlimit="10" width="22.208" height="43.75"/>
<line fill="none" stroke="#FFFFFF" stroke-miterlimit="10" x1="399.55" y1="269.959" x2="378.38" y2="310.709"/>
<line fill="none" stroke="#FFFFFF" stroke-miterlimit="10" x1="400.589" y1="271.293" x2="378.714" y2="313.46"/>
<rect x="378.38" y="269.959" fill="none" stroke="#FFFFFF" stroke-miterlimit="10" width="22.209" height="43.75"/>
<rect x="407.13" y="84.506" fill="none" stroke="#FFFFFF" stroke-miterlimit="10" width="24.762" height="275.453"/>
<rect x="402.38" y="356.334" fill="none" stroke="#FFFFFF" stroke-miterlimit="10" width="35" height="3.625"/>
<rect x="408.88" y="313.709" fill="none" stroke="#FFFFFF" stroke-miterlimit="10" width="22.291" height="46.25"/>
<rect x="402.38" y="328.959" fill="none" stroke="#FFFFFF" stroke-miterlimit="10" width="22.125" height="2.75"/>
<rect x="402.38" y="344.834" fill="none" stroke="#FFFFFF" stroke-miterlimit="10" width="22.125" height="2.25"/>
<rect x="402.38" y="313.709" fill="none" stroke="#FFFFFF" stroke-miterlimit="10" width="28.375" height="2.375"/>
<rect x="427.005" y="328.959" fill="none" stroke="#FFFFFF" stroke-miterlimit="10" width="6.75" height="2.75"/>
<rect x="427.005" y="344.834" fill="none" stroke="#FFFFFF" stroke-miterlimit="10" width="6.75" height="2.25"/>
<line fill="none" stroke="#FFFFFF" stroke-miterlimit="10" x1="429.88" y1="316.084" x2="424.505" y2="328.959"/>
<line fill="none" stroke="#FFFFFF" stroke-miterlimit="10" x1="424.505" y1="331.709" x2="424.505" y2="359.959"/>
<line fill="none" stroke="#FFFFFF" stroke-miterlimit="10" x1="427.005" y1="331.709" x2="427.005" y2="359.959"/>
<rect x="408.88" y="85.835" fill="none" stroke="#FFFFFF" stroke-miterlimit="10" width="22.207" height="47.583"/>
<line fill="none" stroke="#FFFFFF" stroke-miterlimit="10" x1="408.88" y1="87.333" x2="431.087" y2="130.083"/>
<line fill="none" stroke="#FFFFFF" stroke-miterlimit="10" x1="408.88" y1="90.667" x2="430.755" y2="132.834"/>
<line fill="none" stroke="#FFFFFF" stroke-miterlimit="10" x1="409.919" y1="134.834" x2="431.087" y2="175.584"/>
<line fill="none" stroke="#FFFFFF" stroke-miterlimit="10" x1="408.88" y1="136.168" x2="430.755" y2="178.335"/>
<rect x="408.88" y="134.834" fill="none" stroke="#FFFFFF" stroke-miterlimit="10" width="22.207" height="43.75"/>
<line fill="none" stroke="#FFFFFF" stroke-miterlimit="10" x1="409.919" y1="179.959" x2="431.087" y2="220.709"/>
<line fill="none" stroke="#FFFFFF" stroke-miterlimit="10" x1="408.88" y1="181.293" x2="430.755" y2="223.46"/>
<rect x="408.88" y="179.959" fill="none" stroke="#FFFFFF" stroke-miterlimit="10" width="22.207" height="43.75"/>
<line fill="none" stroke="#FFFFFF" stroke-miterlimit="10" x1="409.919" y1="225.167" x2="431.087" y2="265.916"/>
<line fill="none" stroke="#FFFFFF" stroke-miterlimit="10" x1="408.88" y1="226.5" x2="430.755" y2="268.668"/>
<rect x="408.88" y="225.167" fill="none" stroke="#FFFFFF" stroke-miterlimit="10" width="22.207" height="43.75"/>
<line fill="none" stroke="#FFFFFF" stroke-miterlimit="10" x1="409.96" y1="269.959" x2="431.129" y2="310.709"/>
<line fill="none" stroke="#FFFFFF" stroke-miterlimit="10" x1="408.921" y1="271.293" x2="430.796" y2="313.461"/>
<rect x="408.921" y="269.959" fill="none" stroke="#FFFFFF" stroke-miterlimit="10" width="22.208" height="43.75"/>
<rect id="Aisle_6_1_" x="531.548" y="66.834" fill="none" stroke="#FFFFFF" stroke-miterlimit="10" width="40.875" height="293.125"/>
<rect x="504.923" y="84.506" fill="none" stroke="#FFFFFF" stroke-miterlimit="10" width="24.762" height="275.453"/>
<rect x="500.173" y="356.334" fill="none" stroke="#FFFFFF" stroke-miterlimit="10" width="35" height="3.625"/>
<rect x="506.673" y="313.709" fill="none" stroke="#FFFFFF" stroke-miterlimit="10" width="22.291" height="46.25"/>
<rect x="500.173" y="328.959" fill="none" stroke="#FFFFFF" stroke-miterlimit="10" width="22.125" height="2.75"/>
<rect x="500.173" y="344.834" fill="none" stroke="#FFFFFF" stroke-miterlimit="10" width="22.125" height="2.25"/>
<rect x="500.173" y="313.709" fill="none" stroke="#FFFFFF" stroke-miterlimit="10" width="28.375" height="2.375"/>
<rect x="524.798" y="328.959" fill="none" stroke="#FFFFFF" stroke-miterlimit="10" width="6.75" height="2.75"/>
<rect x="524.798" y="344.834" fill="none" stroke="#FFFFFF" stroke-miterlimit="10" width="6.75" height="2.25"/>
<line fill="none" stroke="#FFFFFF" stroke-miterlimit="10" x1="527.673" y1="316.084" x2="522.298" y2="328.959"/>
<line fill="none" stroke="#FFFFFF" stroke-miterlimit="10" x1="522.298" y1="331.709" x2="522.298" y2="359.959"/>
<line fill="none" stroke="#FFFFFF" stroke-miterlimit="10" x1="524.798" y1="331.709" x2="524.798" y2="359.959"/>
<rect x="506.673" y="85.834" fill="none" stroke="#FFFFFF" stroke-miterlimit="10" width="22.207" height="47.583"/>
<line fill="none" stroke="#FFFFFF" stroke-miterlimit="10" x1="506.673" y1="87.333" x2="528.88" y2="130.083"/>
<line fill="none" stroke="#FFFFFF" stroke-miterlimit="10" x1="506.673" y1="90.667" x2="528.548" y2="132.834"/>
<line fill="none" stroke="#FFFFFF" stroke-miterlimit="10" x1="507.712" y1="134.834" x2="528.88" y2="175.584"/>
<line fill="none" stroke="#FFFFFF" stroke-miterlimit="10" x1="506.673" y1="136.167" x2="528.548" y2="178.335"/>
<rect x="506.673" y="134.834" fill="none" stroke="#FFFFFF" stroke-miterlimit="10" width="22.207" height="43.75"/>
<line fill="none" stroke="#FFFFFF" stroke-miterlimit="10" x1="507.712" y1="179.959" x2="528.88" y2="220.709"/>
<line fill="none" stroke="#FFFFFF" stroke-miterlimit="10" x1="506.673" y1="181.292" x2="528.548" y2="223.46"/>
<rect x="506.673" y="179.959" fill="none" stroke="#FFFFFF" stroke-miterlimit="10" width="22.207" height="43.75"/>
<line fill="none" stroke="#FFFFFF" stroke-miterlimit="10" x1="507.712" y1="225.166" x2="528.88" y2="265.916"/>
<line fill="none" stroke="#FFFFFF" stroke-miterlimit="10" x1="506.673" y1="226.5" x2="528.548" y2="268.667"/>
<rect x="506.673" y="225.166" fill="none" stroke="#FFFFFF" stroke-miterlimit="10" width="22.207" height="43.75"/>
<line fill="none" stroke="#FFFFFF" stroke-miterlimit="10" x1="507.753" y1="269.959" x2="528.922" y2="310.709"/>
<line fill="none" stroke="#FFFFFF" stroke-miterlimit="10" x1="506.714" y1="271.293" x2="528.589" y2="313.46"/>
<rect x="506.714" y="269.959" fill="none" stroke="#FFFFFF" stroke-miterlimit="10" width="22.208" height="43.75"/>
<rect x="475.662" y="84.506" fill="none" stroke="#FFFFFF" stroke-miterlimit="10" width="24.763" height="275.453"/>
<rect x="470.173" y="356.334" fill="none" stroke="#FFFFFF" stroke-miterlimit="10" width="35" height="3.625"/>
<rect x="476.382" y="313.709" fill="none" stroke="#FFFFFF" stroke-miterlimit="10" width="22.291" height="46.25"/>
<rect x="483.048" y="328.959" fill="none" stroke="#FFFFFF" stroke-miterlimit="10" width="22.125" height="2.75"/>
<rect x="483.048" y="344.834" fill="none" stroke="#FFFFFF" stroke-miterlimit="10" width="22.125" height="2.25"/>
<rect x="476.798" y="313.709" fill="none" stroke="#FFFFFF" stroke-miterlimit="10" width="28.375" height="2.375"/>
<rect x="473.798" y="328.959" fill="none" stroke="#FFFFFF" stroke-miterlimit="10" width="6.75" height="2.75"/>
<rect x="473.798" y="344.834" fill="none" stroke="#FFFFFF" stroke-miterlimit="10" width="6.75" height="2.25"/>
<line fill="none" stroke="#FFFFFF" stroke-miterlimit="10" x1="477.673" y1="316.084" x2="483.048" y2="328.959"/>
<line fill="none" stroke="#FFFFFF" stroke-miterlimit="10" x1="483.048" y1="331.709" x2="483.048" y2="359.959"/>
<line fill="none" stroke="#FFFFFF" stroke-miterlimit="10" x1="480.548" y1="331.709" x2="480.548" y2="359.959"/>
<rect x="476.466" y="85.834" fill="none" stroke="#FFFFFF" stroke-miterlimit="10" width="22.207" height="47.583"/>
<line fill="none" stroke="#FFFFFF" stroke-miterlimit="10" x1="498.673" y1="87.333" x2="476.466" y2="130.083"/>
<line fill="none" stroke="#FFFFFF" stroke-miterlimit="10" x1="498.673" y1="90.667" x2="476.798" y2="132.834"/>
<line fill="none" stroke="#FFFFFF" stroke-miterlimit="10" x1="497.634" y1="134.834" x2="476.466" y2="175.584"/>
<line fill="none" stroke="#FFFFFF" stroke-miterlimit="10" x1="498.673" y1="136.167" x2="476.798" y2="178.335"/>
<rect x="476.466" y="134.834" fill="none" stroke="#FFFFFF" stroke-miterlimit="10" width="22.207" height="43.75"/>
<line fill="none" stroke="#FFFFFF" stroke-miterlimit="10" x1="497.634" y1="179.959" x2="476.466" y2="220.709"/>
<line fill="none" stroke="#FFFFFF" stroke-miterlimit="10" x1="498.673" y1="181.292" x2="476.798" y2="223.46"/>
<rect x="476.466" y="179.959" fill="none" stroke="#FFFFFF" stroke-miterlimit="10" width="22.207" height="43.75"/>
<line fill="none" stroke="#FFFFFF" stroke-miterlimit="10" x1="497.634" y1="225.166" x2="476.466" y2="265.916"/>
<line fill="none" stroke="#FFFFFF" stroke-miterlimit="10" x1="498.673" y1="226.5" x2="476.798" y2="268.667"/>
<rect x="476.466" y="225.166" fill="none" stroke="#FFFFFF" stroke-miterlimit="10" width="22.207" height="43.75"/>
<line fill="none" stroke="#FFFFFF" stroke-miterlimit="10" x1="497.593" y1="269.959" x2="476.424" y2="310.709"/>
<line fill="none" stroke="#FFFFFF" stroke-miterlimit="10" x1="498.632" y1="271.293" x2="476.757" y2="313.46"/>
<rect x="476.424" y="269.959" fill="none" stroke="#FFFFFF" stroke-miterlimit="10" width="22.208" height="43.75"/>
<rect x="574.662" y="84.506" fill="none" stroke="#FFFFFF" stroke-miterlimit="10" width="24.763" height="275.453"/>
<rect x="569.173" y="356.334" fill="none" stroke="#FFFFFF" stroke-miterlimit="10" width="35" height="3.625"/>
<rect x="575.382" y="313.709" fill="none" stroke="#FFFFFF" stroke-miterlimit="10" width="22.291" height="46.25"/>
<rect x="582.048" y="328.959" fill="none" stroke="#FFFFFF" stroke-miterlimit="10" width="22.125" height="2.75"/>
<rect x="582.048" y="344.834" fill="none" stroke="#FFFFFF" stroke-miterlimit="10" width="22.125" height="2.25"/>
<rect x="575.798" y="313.709" fill="none" stroke="#FFFFFF" stroke-miterlimit="10" width="28.375" height="2.375"/>
<rect x="572.798" y="328.959" fill="none" stroke="#FFFFFF" stroke-miterlimit="10" width="6.75" height="2.75"/>
<rect x="572.798" y="344.834" fill="none" stroke="#FFFFFF" stroke-miterlimit="10" width="6.75" height="2.25"/>
<line fill="none" stroke="#FFFFFF" stroke-miterlimit="10" x1="576.673" y1="316.084" x2="582.048" y2="328.959"/>
<line fill="none" stroke="#FFFFFF" stroke-miterlimit="10" x1="582.048" y1="331.709" x2="582.048" y2="359.959"/>
<line fill="none" stroke="#FFFFFF" stroke-miterlimit="10" x1="579.548" y1="331.709" x2="579.548" y2="359.959"/>
<rect x="575.466" y="85.834" fill="none" stroke="#FFFFFF" stroke-miterlimit="10" width="22.207" height="47.583"/>
<line fill="none" stroke="#FFFFFF" stroke-miterlimit="10" x1="597.673" y1="87.333" x2="575.466" y2="130.083"/>
<line fill="none" stroke="#FFFFFF" stroke-miterlimit="10" x1="597.673" y1="90.667" x2="575.798" y2="132.834"/>
<line fill="none" stroke="#FFFFFF" stroke-miterlimit="10" x1="596.634" y1="134.834" x2="575.466" y2="175.584"/>
<line fill="none" stroke="#FFFFFF" stroke-miterlimit="10" x1="597.673" y1="136.167" x2="575.798" y2="178.335"/>
<rect x="575.466" y="134.834" fill="none" stroke="#FFFFFF" stroke-miterlimit="10" width="22.207" height="43.75"/>
<line fill="none" stroke="#FFFFFF" stroke-miterlimit="10" x1="596.634" y1="179.959" x2="575.466" y2="220.709"/>
<line fill="none" stroke="#FFFFFF" stroke-miterlimit="10" x1="597.673" y1="181.292" x2="575.798" y2="223.46"/>
<rect x="575.466" y="179.959" fill="none" stroke="#FFFFFF" stroke-miterlimit="10" width="22.207" height="43.75"/>
<line fill="none" stroke="#FFFFFF" stroke-miterlimit="10" x1="596.634" y1="225.166" x2="575.466" y2="265.916"/>
<line fill="none" stroke="#FFFFFF" stroke-miterlimit="10" x1="597.673" y1="226.5" x2="575.798" y2="268.667"/>
<rect x="575.466" y="225.166" fill="none" stroke="#FFFFFF" stroke-miterlimit="10" width="22.207" height="43.75"/>
<line fill="none" stroke="#FFFFFF" stroke-miterlimit="10" x1="596.593" y1="269.959" x2="575.424" y2="310.709"/>
<line fill="none" stroke="#FFFFFF" stroke-miterlimit="10" x1="597.632" y1="271.293" x2="575.757" y2="313.46"/>
<rect x="575.424" y="269.959" fill="none" stroke="#FFFFFF" stroke-miterlimit="10" width="22.208" height="43.75"/>
<rect x="7.248" y="30.584" fill="none" stroke="#FFFFFF" stroke-width="3" stroke-miterlimit="10" width="596.926" height="25"/>
<rect x="291" y="56.584" fill="none" stroke="#FFFFFF" stroke-width="2" stroke-miterlimit="10" width="30.253" height="14"/>
<rect x="377.619" y="56.584" fill="none" stroke="#FFFFFF" stroke-width="2" stroke-miterlimit="10" width="24.762" height="12.5"/>
<rect x="489.869" y="57.334" fill="none" stroke="#FFFFFF" stroke-width="2" stroke-miterlimit="10" width="29.638" height="13.25"/>
<rect x="575.466" y="56.209" fill="none" stroke="#FFFFFF" stroke-width="2" stroke-miterlimit="10" width="23.957" height="13.25"/>
<line fill="none" stroke="#FFFFFF" stroke-width="2" stroke-miterlimit="10" x1="604.777" y1="30.584" x2="581.914" y2="54.012"/>
<line fill="none" stroke="#FFFFFF" stroke-width="2" stroke-miterlimit="10" x1="581.914" y1="55.584" x2="556.772" y2="30.584"/>
<line fill="none" stroke="#FFFFFF" stroke-width="2" stroke-miterlimit="10" x1="558.71" y1="30.584" x2="535.847" y2="54.012"/>
<line fill="none" stroke="#FFFFFF" stroke-width="2" stroke-miterlimit="10" x1="535.847" y1="55.584" x2="510.707" y2="30.584"/>
<line fill="none" stroke="#FFFFFF" stroke-width="2" stroke-miterlimit="10" x1="512.969" y1="30.584" x2="490.105" y2="54.012"/>
<line fill="none" stroke="#FFFFFF" stroke-width="2" stroke-miterlimit="10" x1="490.105" y1="55.584" x2="464.964" y2="30.584"/>
<line fill="none" stroke="#FFFFFF" stroke-width="2" stroke-miterlimit="10" x1="468.474" y1="30.584" x2="445.611" y2="54.012"/>
<line fill="none" stroke="#FFFFFF" stroke-width="2" stroke-miterlimit="10" x1="445.611" y1="55.584" x2="420.469" y2="30.584"/>
<line fill="none" stroke="#FFFFFF" stroke-width="2" stroke-miterlimit="10" x1="421.862" y1="30.584" x2="399" y2="54.012"/>
<line fill="none" stroke="#FFFFFF" stroke-width="2" stroke-miterlimit="10" x1="399" y1="55.584" x2="373.858" y2="30.584"/>
<line fill="none" stroke="#FFFFFF" stroke-width="2" stroke-miterlimit="10" x1="375.512" y1="30.584" x2="352.648" y2="54.012"/>
<line fill="none" stroke="#FFFFFF" stroke-width="2" stroke-miterlimit="10" x1="352.648" y1="55.584" x2="327.507" y2="30.584"/>
<line fill="none" stroke="#FFFFFF" stroke-width="2" stroke-miterlimit="10" x1="330.525" y1="30.584" x2="307.662" y2="54.012"/>
<line fill="none" stroke="#FFFFFF" stroke-width="2" stroke-miterlimit="10" x1="307.662" y1="55.584" x2="282.52" y2="30.584"/>
<line fill="none" stroke="#FFFFFF" stroke-width="2" stroke-miterlimit="10" x1="284.437" y1="30.584" x2="261.573" y2="54.012"/>
<line fill="none" stroke="#FFFFFF" stroke-width="2" stroke-miterlimit="10" x1="261.573" y1="55.584" x2="236.432" y2="30.584"/>
<line fill="none" stroke="#FFFFFF" stroke-width="2" stroke-miterlimit="10" x1="240.333" y1="30.584" x2="217.469" y2="54.012"/>
<line fill="none" stroke="#FFFFFF" stroke-width="2" stroke-miterlimit="10" x1="217.469" y1="55.584" x2="192.328" y2="30.584"/>
<line fill="none" stroke="#FFFFFF" stroke-width="2" stroke-miterlimit="10" x1="195.543" y1="30.584" x2="172.679" y2="54.012"/>
<line fill="none" stroke="#FFFFFF" stroke-width="2" stroke-miterlimit="10" x1="172.679" y1="55.584" x2="147.539" y2="30.584"/>
<line fill="none" stroke="#FFFFFF" stroke-width="2" stroke-miterlimit="10" x1="147.539" y1="30.584" x2="124.675" y2="54.012"/>
<line fill="none" stroke="#FFFFFF" stroke-width="2" stroke-miterlimit="10" x1="124.675" y1="55.584" x2="99.534" y2="30.584"/>
<line fill="none" stroke="#FFFFFF" stroke-width="2" stroke-miterlimit="10" x1="100.935" y1="30.584" x2="78.071" y2="54.012"/>
<line fill="none" stroke="#FFFFFF" stroke-width="2" stroke-miterlimit="10" x1="78.071" y1="55.584" x2="52.93" y2="30.584"/>
<line fill="none" stroke="#FFFFFF" stroke-width="2" stroke-miterlimit="10" x1="55.439" y1="30.584" x2="32.575" y2="54.012"/>
<line fill="none" stroke="#FFFFFF" stroke-width="2" stroke-miterlimit="10" x1="32.575" y1="55.584" x2="7.434" y2="30.584"/>
<rect x="7.248" y="20.334" fill="none" stroke="#FFFFFF" stroke-width="2" stroke-miterlimit="10" width="596.926" height="4.667"/>
<rect x="604.173" y="13.333" fill="none" stroke="#FFFFFF" stroke-width="2" stroke-miterlimit="10" width="6.248" height="346.625"/>
<line fill="none" stroke="#FFFFFF" stroke-miterlimit="10" x1="291" y1="56.584" x2="321.253" y2="70.584"/>
<line fill="none" stroke="#FFFFFF" stroke-miterlimit="10" x1="292.005" y1="70.584" x2="321.253" y2="56.584"/>
<line fill="none" stroke="#FFFFFF" stroke-miterlimit="10" x1="377.619" y1="56.584" x2="402.38" y2="69.084"/>
<line fill="none" stroke="#FFFFFF" stroke-miterlimit="10" x1="377.619" y1="69.084" x2="400.63" y2="57.334"/>
<line fill="none" stroke="#FFFFFF" stroke-miterlimit="10" x1="489.869" y1="57.334" x2="519.505" y2="70.584"/>
<line fill="none" stroke="#FFFFFF" stroke-miterlimit="10" x1="489.869" y1="70.584" x2="519.505" y2="57.334"/>
<line fill="none" stroke="#FFFFFF" stroke-miterlimit="10" x1="575.798" y1="57.334" x2="599.423" y2="69.459"/>
<line fill="none" stroke="#FFFFFF" stroke-miterlimit="10" x1="575.466" y1="69.459" x2="597.673" y2="57.334"/>
<rect id="Aisle_2_1_" x="137.623" y="66.834" fill="none" stroke="#FFFFFF" stroke-miterlimit="10" width="40.043" height="293.125"/>
<rect id="Aisle_3_1_" x="236.041" y="66.834" fill="none" stroke="#FFFFFF" stroke-miterlimit="10" width="40.875" height="293.125"/>
<rect x="278.778" y="84.506" fill="none" stroke="#FFFFFF" stroke-miterlimit="10" width="24.762" height="275.453"/>
<rect x="273.291" y="356.334" fill="none" stroke="#FFFFFF" stroke-miterlimit="10" width="35" height="3.625"/>
<rect x="279.5" y="313.709" fill="none" stroke="#FFFFFF" stroke-miterlimit="10" width="22.291" height="46.25"/>
<rect x="286.166" y="328.959" fill="none" stroke="#FFFFFF" stroke-miterlimit="10" width="22.125" height="2.75"/>
<rect x="286.166" y="344.834" fill="none" stroke="#FFFFFF" stroke-miterlimit="10" width="22.125" height="2.25"/>
<rect x="279.916" y="313.709" fill="none" stroke="#FFFFFF" stroke-miterlimit="10" width="28.375" height="2.375"/>
<rect x="276.916" y="328.959" fill="none" stroke="#FFFFFF" stroke-miterlimit="10" width="6.75" height="2.75"/>
<rect x="276.916" y="344.834" fill="none" stroke="#FFFFFF" stroke-miterlimit="10" width="6.75" height="2.25"/>
<line fill="none" stroke="#FFFFFF" stroke-miterlimit="10" x1="280.791" y1="316.084" x2="286.166" y2="328.959"/>
<line fill="none" stroke="#FFFFFF" stroke-miterlimit="10" x1="286.166" y1="331.709" x2="286.166" y2="359.959"/>
<line fill="none" stroke="#FFFFFF" stroke-miterlimit="10" x1="283.666" y1="331.709" x2="283.666" y2="359.959"/>
<rect x="279.583" y="85.834" fill="none" stroke="#FFFFFF" stroke-miterlimit="10" width="22.208" height="47.583"/>
<line fill="none" stroke="#FFFFFF" stroke-miterlimit="10" x1="301.791" y1="87.333" x2="279.583" y2="130.083"/>
<line fill="none" stroke="#FFFFFF" stroke-miterlimit="10" x1="301.791" y1="90.667" x2="279.916" y2="132.834"/>
<line fill="none" stroke="#FFFFFF" stroke-miterlimit="10" x1="300.751" y1="134.834" x2="279.583" y2="175.584"/>
<line fill="none" stroke="#FFFFFF" stroke-miterlimit="10" x1="301.791" y1="136.167" x2="279.916" y2="178.335"/>
<rect x="279.583" y="134.834" fill="none" stroke="#FFFFFF" stroke-miterlimit="10" width="22.208" height="43.75"/>
<line fill="none" stroke="#FFFFFF" stroke-miterlimit="10" x1="300.751" y1="179.959" x2="279.583" y2="220.709"/>
<line fill="none" stroke="#FFFFFF" stroke-miterlimit="10" x1="301.791" y1="181.292" x2="279.916" y2="223.46"/>
<rect x="279.583" y="179.959" fill="none" stroke="#FFFFFF" stroke-miterlimit="10" width="22.208" height="43.75"/>
<line fill="none" stroke="#FFFFFF" stroke-miterlimit="10" x1="300.751" y1="225.166" x2="279.583" y2="265.916"/>
<line fill="none" stroke="#FFFFFF" stroke-miterlimit="10" x1="301.791" y1="226.5" x2="279.916" y2="268.667"/>
<rect x="279.583" y="225.166" fill="none" stroke="#FFFFFF" stroke-miterlimit="10" width="22.208" height="43.75"/>
<line fill="none" stroke="#FFFFFF" stroke-miterlimit="10" x1="300.71" y1="269.959" x2="279.541" y2="310.709"/>
<line fill="none" stroke="#FFFFFF" stroke-miterlimit="10" x1="301.749" y1="271.293" x2="279.874" y2="313.46"/>
<rect x="279.541" y="269.959" fill="none" stroke="#FFFFFF" stroke-miterlimit="10" width="22.208" height="43.75"/>
<rect x="209.041" y="84.506" fill="none" stroke="#FFFFFF" stroke-miterlimit="10" width="24.762" height="275.453"/>
<rect x="204.291" y="356.334" fill="none" stroke="#FFFFFF" stroke-miterlimit="10" width="35" height="3.625"/>
<rect x="210.791" y="313.709" fill="none" stroke="#FFFFFF" stroke-miterlimit="10" width="22.291" height="46.25"/>
<rect x="204.291" y="328.959" fill="none" stroke="#FFFFFF" stroke-miterlimit="10" width="22.125" height="2.75"/>
<rect x="204.291" y="344.834" fill="none" stroke="#FFFFFF" stroke-miterlimit="10" width="22.125" height="2.25"/>
<rect x="204.291" y="313.709" fill="none" stroke="#FFFFFF" stroke-miterlimit="10" width="28.375" height="2.375"/>
<rect x="228.916" y="328.959" fill="none" stroke="#FFFFFF" stroke-miterlimit="10" width="6.75" height="2.75"/>
<rect x="228.916" y="344.834" fill="none" stroke="#FFFFFF" stroke-miterlimit="10" width="6.75" height="2.25"/>
<line fill="none" stroke="#FFFFFF" stroke-miterlimit="10" x1="231.791" y1="316.084" x2="226.416" y2="328.959"/>
<line fill="none" stroke="#FFFFFF" stroke-miterlimit="10" x1="226.416" y1="331.709" x2="226.416" y2="359.959"/>
<line fill="none" stroke="#FFFFFF" stroke-miterlimit="10" x1="228.916" y1="331.709" x2="228.916" y2="359.959"/>
<rect x="210.791" y="85.834" fill="none" stroke="#FFFFFF" stroke-miterlimit="10" width="22.208" height="47.583"/>
<line fill="none" stroke="#FFFFFF" stroke-miterlimit="10" x1="210.791" y1="87.333" x2="232.998" y2="130.083"/>
<line fill="none" stroke="#FFFFFF" stroke-miterlimit="10" x1="210.791" y1="90.667" x2="232.666" y2="132.834"/>
<line fill="none" stroke="#FFFFFF" stroke-miterlimit="10" x1="211.83" y1="134.834" x2="232.998" y2="175.584"/>
<line fill="none" stroke="#FFFFFF" stroke-miterlimit="10" x1="210.791" y1="136.167" x2="232.666" y2="178.335"/>
<rect x="210.791" y="134.834" fill="none" stroke="#FFFFFF" stroke-miterlimit="10" width="22.208" height="43.75"/>
<line fill="none" stroke="#FFFFFF" stroke-miterlimit="10" x1="211.83" y1="179.959" x2="232.998" y2="220.709"/>
<line fill="none" stroke="#FFFFFF" stroke-miterlimit="10" x1="210.791" y1="181.292" x2="232.666" y2="223.46"/>
<rect x="210.791" y="179.959" fill="none" stroke="#FFFFFF" stroke-miterlimit="10" width="22.208" height="43.75"/>
<line fill="none" stroke="#FFFFFF" stroke-miterlimit="10" x1="211.83" y1="225.166" x2="232.998" y2="265.916"/>
<line fill="none" stroke="#FFFFFF" stroke-miterlimit="10" x1="210.791" y1="226.5" x2="232.666" y2="268.667"/>
<rect x="210.791" y="225.166" fill="none" stroke="#FFFFFF" stroke-miterlimit="10" width="22.208" height="43.75"/>
<line fill="none" stroke="#FFFFFF" stroke-miterlimit="10" x1="211.871" y1="269.959" x2="233.04" y2="310.709"/>
<line fill="none" stroke="#FFFFFF" stroke-miterlimit="10" x1="210.832" y1="271.293" x2="232.707" y2="313.46"/>
<rect x="210.832" y="269.959" fill="none" stroke="#FFFFFF" stroke-miterlimit="10" width="22.208" height="43.75"/>
<rect x="179.529" y="84.506" fill="none" stroke="#FFFFFF" stroke-miterlimit="10" width="24.762" height="275.453"/>
<rect x="174.041" y="356.334" fill="none" stroke="#FFFFFF" stroke-miterlimit="10" width="35" height="3.625"/>
<rect x="180.25" y="313.709" fill="none" stroke="#FFFFFF" stroke-miterlimit="10" width="22.291" height="46.25"/>
<rect x="186.916" y="328.959" fill="none" stroke="#FFFFFF" stroke-miterlimit="10" width="22.125" height="2.75"/>
<rect x="186.916" y="344.834" fill="none" stroke="#FFFFFF" stroke-miterlimit="10" width="22.125" height="2.25"/>
<rect x="180.666" y="313.709" fill="none" stroke="#FFFFFF" stroke-miterlimit="10" width="28.375" height="2.375"/>
<rect x="177.666" y="328.959" fill="none" stroke="#FFFFFF" stroke-miterlimit="10" width="6.75" height="2.75"/>
<rect x="177.666" y="344.834" fill="none" stroke="#FFFFFF" stroke-miterlimit="10" width="6.75" height="2.25"/>
<line fill="none" stroke="#FFFFFF" stroke-miterlimit="10" x1="181.541" y1="316.084" x2="186.916" y2="328.959"/>
<line fill="none" stroke="#FFFFFF" stroke-miterlimit="10" x1="186.916" y1="331.709" x2="186.916" y2="359.959"/>
<line fill="none" stroke="#FFFFFF" stroke-miterlimit="10" x1="184.416" y1="331.709" x2="184.416" y2="359.959"/>
<rect x="180.333" y="85.835" fill="none" stroke="#FFFFFF" stroke-miterlimit="10" width="22.207" height="47.583"/>
<line fill="none" stroke="#FFFFFF" stroke-miterlimit="10" x1="202.541" y1="87.333" x2="180.333" y2="130.083"/>
<line fill="none" stroke="#FFFFFF" stroke-miterlimit="10" x1="202.541" y1="90.667" x2="180.666" y2="132.834"/>
<line fill="none" stroke="#FFFFFF" stroke-miterlimit="10" x1="201.501" y1="134.834" x2="180.333" y2="175.584"/>
<line fill="none" stroke="#FFFFFF" stroke-miterlimit="10" x1="202.541" y1="136.168" x2="180.666" y2="178.335"/>
<rect x="180.333" y="134.834" fill="none" stroke="#FFFFFF" stroke-miterlimit="10" width="22.207" height="43.75"/>
<line fill="none" stroke="#FFFFFF" stroke-miterlimit="10" x1="201.501" y1="179.959" x2="180.333" y2="220.709"/>
<line fill="none" stroke="#FFFFFF" stroke-miterlimit="10" x1="202.541" y1="181.293" x2="180.666" y2="223.46"/>
<rect x="180.333" y="179.959" fill="none" stroke="#FFFFFF" stroke-miterlimit="10" width="22.207" height="43.75"/>
<line fill="none" stroke="#FFFFFF" stroke-miterlimit="10" x1="201.501" y1="225.167" x2="180.333" y2="265.916"/>
<line fill="none" stroke="#FFFFFF" stroke-miterlimit="10" x1="202.541" y1="226.5" x2="180.666" y2="268.668"/>
<rect x="180.333" y="225.167" fill="none" stroke="#FFFFFF" stroke-miterlimit="10" width="22.207" height="43.75"/>
<line fill="none" stroke="#FFFFFF" stroke-miterlimit="10" x1="201.46" y1="269.959" x2="180.291" y2="310.709"/>
<line fill="none" stroke="#FFFFFF" stroke-miterlimit="10" x1="202.5" y1="271.293" x2="180.624" y2="313.461"/>
<rect x="180.291" y="269.959" fill="none" stroke="#FFFFFF" stroke-miterlimit="10" width="22.208" height="43.75"/>
<rect id="Aisle_1_1_" x="38.998" y="66.834" fill="none" stroke="#FFFFFF" stroke-miterlimit="10" width="40.875" height="293.125"/>
<rect x="81.736" y="84.506" fill="none" stroke="#FFFFFF" stroke-miterlimit="10" width="24.762" height="275.453"/>
<rect x="76.248" y="356.334" fill="none" stroke="#FFFFFF" stroke-miterlimit="10" width="35" height="3.625"/>
<rect x="82.457" y="313.709" fill="none" stroke="#FFFFFF" stroke-miterlimit="10" width="22.291" height="46.25"/>
<rect x="89.123" y="328.959" fill="none" stroke="#FFFFFF" stroke-miterlimit="10" width="22.125" height="2.75"/>
<rect x="89.123" y="344.834" fill="none" stroke="#FFFFFF" stroke-miterlimit="10" width="22.125" height="2.25"/>
<rect x="82.873" y="313.709" fill="none" stroke="#FFFFFF" stroke-miterlimit="10" width="28.375" height="2.375"/>
<rect x="79.873" y="328.959" fill="none" stroke="#FFFFFF" stroke-miterlimit="10" width="6.75" height="2.75"/>
<rect x="79.873" y="344.834" fill="none" stroke="#FFFFFF" stroke-miterlimit="10" width="6.75" height="2.25"/>
<line fill="none" stroke="#FFFFFF" stroke-miterlimit="10" x1="83.748" y1="316.084" x2="89.123" y2="328.959"/>
<line fill="none" stroke="#FFFFFF" stroke-miterlimit="10" x1="89.123" y1="331.709" x2="89.123" y2="359.959"/>
<line fill="none" stroke="#FFFFFF" stroke-miterlimit="10" x1="86.623" y1="331.709" x2="86.623" y2="359.959"/>
<rect x="82.541" y="85.834" fill="none" stroke="#FFFFFF" stroke-miterlimit="10" width="22.207" height="47.583"/>
<line fill="none" stroke="#FFFFFF" stroke-miterlimit="10" x1="104.748" y1="87.333" x2="82.541" y2="130.083"/>
<line fill="none" stroke="#FFFFFF" stroke-miterlimit="10" x1="104.748" y1="90.667" x2="82.873" y2="132.834"/>
<line fill="none" stroke="#FFFFFF" stroke-miterlimit="10" x1="103.708" y1="134.834" x2="82.541" y2="175.584"/>
<line fill="none" stroke="#FFFFFF" stroke-miterlimit="10" x1="104.748" y1="136.167" x2="82.873" y2="178.335"/>
<rect x="82.541" y="134.834" fill="none" stroke="#FFFFFF" stroke-miterlimit="10" width="22.207" height="43.75"/>
<line fill="none" stroke="#FFFFFF" stroke-miterlimit="10" x1="103.708" y1="179.959" x2="82.541" y2="220.709"/>
<line fill="none" stroke="#FFFFFF" stroke-miterlimit="10" x1="104.748" y1="181.292" x2="82.873" y2="223.46"/>
<rect x="82.541" y="179.959" fill="none" stroke="#FFFFFF" stroke-miterlimit="10" width="22.207" height="43.75"/>
<line fill="none" stroke="#FFFFFF" stroke-miterlimit="10" x1="103.708" y1="225.166" x2="82.541" y2="265.916"/>
<line fill="none" stroke="#FFFFFF" stroke-miterlimit="10" x1="104.748" y1="226.5" x2="82.873" y2="268.667"/>
<rect x="82.541" y="225.166" fill="none" stroke="#FFFFFF" stroke-miterlimit="10" width="22.207" height="43.75"/>
<line fill="none" stroke="#FFFFFF" stroke-miterlimit="10" x1="103.667" y1="269.959" x2="82.499" y2="310.709"/>
<line fill="none" stroke="#FFFFFF" stroke-miterlimit="10" x1="104.707" y1="271.293" x2="82.832" y2="313.46"/>
<rect x="82.499" y="269.959" fill="none" stroke="#FFFFFF" stroke-miterlimit="10" width="22.208" height="43.75"/>
<rect x="110.998" y="84.506" fill="none" stroke="#FFFFFF" stroke-miterlimit="10" width="24.762" height="275.453"/>
<rect x="106.248" y="356.334" fill="none" stroke="#FFFFFF" stroke-miterlimit="10" width="35" height="3.625"/>
<rect x="112.748" y="313.709" fill="none" stroke="#FFFFFF" stroke-miterlimit="10" width="22.291" height="46.25"/>
<rect x="106.248" y="328.959" fill="none" stroke="#FFFFFF" stroke-miterlimit="10" width="22.125" height="2.75"/>
<rect x="106.248" y="344.834" fill="none" stroke="#FFFFFF" stroke-miterlimit="10" width="22.125" height="2.25"/>
<rect x="106.248" y="313.709" fill="none" stroke="#FFFFFF" stroke-miterlimit="10" width="28.375" height="2.375"/>
<rect x="130.873" y="328.959" fill="none" stroke="#FFFFFF" stroke-miterlimit="10" width="6.75" height="2.75"/>
<rect x="130.873" y="344.834" fill="none" stroke="#FFFFFF" stroke-miterlimit="10" width="6.75" height="2.25"/>
<line fill="none" stroke="#FFFFFF" stroke-miterlimit="10" x1="133.748" y1="316.084" x2="128.373" y2="328.959"/>
<line fill="none" stroke="#FFFFFF" stroke-miterlimit="10" x1="128.373" y1="331.709" x2="128.373" y2="359.959"/>
<line fill="none" stroke="#FFFFFF" stroke-miterlimit="10" x1="130.873" y1="331.709" x2="130.873" y2="359.959"/>
<rect x="112.748" y="85.834" fill="none" stroke="#FFFFFF" stroke-miterlimit="10" width="22.207" height="47.583"/>
<line fill="none" stroke="#FFFFFF" stroke-miterlimit="10" x1="112.748" y1="87.333" x2="134.955" y2="130.083"/>
<line fill="none" stroke="#FFFFFF" stroke-miterlimit="10" x1="112.748" y1="90.667" x2="134.623" y2="132.834"/>
<line fill="none" stroke="#FFFFFF" stroke-miterlimit="10" x1="113.787" y1="134.834" x2="134.955" y2="175.584"/>
<line fill="none" stroke="#FFFFFF" stroke-miterlimit="10" x1="112.748" y1="136.167" x2="134.623" y2="178.335"/>
<rect x="112.748" y="134.834" fill="none" stroke="#FFFFFF" stroke-miterlimit="10" width="22.207" height="43.75"/>
<line fill="none" stroke="#FFFFFF" stroke-miterlimit="10" x1="113.787" y1="179.959" x2="134.955" y2="220.709"/>
<line fill="none" stroke="#FFFFFF" stroke-miterlimit="10" x1="112.748" y1="181.292" x2="134.623" y2="223.46"/>
<rect x="112.748" y="179.959" fill="none" stroke="#FFFFFF" stroke-miterlimit="10" width="22.207" height="43.75"/>
<line fill="none" stroke="#FFFFFF" stroke-miterlimit="10" x1="113.787" y1="225.166" x2="134.955" y2="265.916"/>
<line fill="none" stroke="#FFFFFF" stroke-miterlimit="10" x1="112.748" y1="226.5" x2="134.623" y2="268.667"/>
<rect x="112.748" y="225.166" fill="none" stroke="#FFFFFF" stroke-miterlimit="10" width="22.207" height="43.75"/>
<line fill="none" stroke="#FFFFFF" stroke-miterlimit="10" x1="113.828" y1="269.959" x2="134.997" y2="310.709"/>
<line fill="none" stroke="#FFFFFF" stroke-miterlimit="10" x1="112.789" y1="271.293" x2="134.664" y2="313.46"/>
<rect x="112.789" y="269.959" fill="none" stroke="#FFFFFF" stroke-miterlimit="10" width="22.208" height="43.75"/>
<rect x="11.998" y="84.506" fill="none" stroke="#FFFFFF" stroke-miterlimit="10" width="24.762" height="275.453"/>
<rect x="7.248" y="356.334" fill="none" stroke="#FFFFFF" stroke-miterlimit="10" width="35" height="3.625"/>
<rect x="13.748" y="313.709" fill="none" stroke="#FFFFFF" stroke-miterlimit="10" width="22.291" height="46.25"/>
<rect x="7.248" y="328.959" fill="none" stroke="#FFFFFF" stroke-miterlimit="10" width="22.125" height="2.75"/>
<rect x="7.248" y="344.834" fill="none" stroke="#FFFFFF" stroke-miterlimit="10" width="22.125" height="2.25"/>
<rect x="7.248" y="313.709" fill="none" stroke="#FFFFFF" stroke-miterlimit="10" width="28.375" height="2.375"/>
<rect x="31.873" y="328.959" fill="none" stroke="#FFFFFF" stroke-miterlimit="10" width="6.75" height="2.75"/>
<rect x="31.873" y="344.834" fill="none" stroke="#FFFFFF" stroke-miterlimit="10" width="6.75" height="2.25"/>
<line fill="none" stroke="#FFFFFF" stroke-miterlimit="10" x1="34.748" y1="316.084" x2="29.373" y2="328.959"/>
<line fill="none" stroke="#FFFFFF" stroke-miterlimit="10" x1="29.373" y1="331.709" x2="29.373" y2="359.959"/>
<line fill="none" stroke="#FFFFFF" stroke-miterlimit="10" x1="31.873" y1="331.709" x2="31.873" y2="359.959"/>
<rect x="13.748" y="85.834" fill="none" stroke="#FFFFFF" stroke-miterlimit="10" width="22.207" height="47.583"/>
<line fill="none" stroke="#FFFFFF" stroke-miterlimit="10" x1="13.748" y1="87.333" x2="35.955" y2="130.083"/>
<line fill="none" stroke="#FFFFFF" stroke-miterlimit="10" x1="13.748" y1="90.667" x2="35.623" y2="132.834"/>
<line fill="none" stroke="#FFFFFF" stroke-miterlimit="10" x1="14.787" y1="134.834" x2="35.955" y2="175.584"/>
<line fill="none" stroke="#FFFFFF" stroke-miterlimit="10" x1="13.748" y1="136.167" x2="35.623" y2="178.335"/>
<rect x="13.748" y="134.834" fill="none" stroke="#FFFFFF" stroke-miterlimit="10" width="22.207" height="43.75"/>
<line fill="none" stroke="#FFFFFF" stroke-miterlimit="10" x1="14.787" y1="179.959" x2="35.955" y2="220.709"/>
<line fill="none" stroke="#FFFFFF" stroke-miterlimit="10" x1="13.748" y1="181.292" x2="35.623" y2="223.46"/>
<rect x="13.748" y="179.959" fill="none" stroke="#FFFFFF" stroke-miterlimit="10" width="22.207" height="43.75"/>
<line fill="none" stroke="#FFFFFF" stroke-miterlimit="10" x1="14.787" y1="225.166" x2="35.955" y2="265.916"/>
<line fill="none" stroke="#FFFFFF" stroke-miterlimit="10" x1="13.748" y1="226.5" x2="35.623" y2="268.667"/>
<rect x="13.748" y="225.166" fill="none" stroke="#FFFFFF" stroke-miterlimit="10" width="22.207" height="43.75"/>
<line fill="none" stroke="#FFFFFF" stroke-miterlimit="10" x1="14.828" y1="269.959" x2="35.997" y2="310.709"/>
<line fill="none" stroke="#FFFFFF" stroke-miterlimit="10" x1="13.789" y1="271.293" x2="35.664" y2="313.46"/>
<rect x="13.789" y="269.959" fill="none" stroke="#FFFFFF" stroke-miterlimit="10" width="22.208" height="43.75"/>
<rect x="290.167" y="56.584" fill="none" stroke="#FFFFFF" stroke-width="2" stroke-miterlimit="10" width="30.254" height="14"/>
<rect x="209.041" y="56.584" fill="none" stroke="#FFFFFF" stroke-width="2" stroke-miterlimit="10" width="24.762" height="12.5"/>
<rect x="91.916" y="57.334" fill="none" stroke="#FFFFFF" stroke-width="2" stroke-miterlimit="10" width="29.637" height="13.25"/>
<rect x="11.998" y="56.209" fill="none" stroke="#FFFFFF" stroke-width="2" stroke-miterlimit="10" width="23.957" height="13.25"/>
<rect x="1" y="13.333" fill="none" stroke="#FFFFFF" stroke-width="2" stroke-miterlimit="10" width="6.248" height="346.625"/>
<line fill="none" stroke="#FFFFFF" stroke-miterlimit="10" x1="320.421" y1="56.584" x2="290.167" y2="70.584"/>
<line fill="none" stroke="#FFFFFF" stroke-miterlimit="10" x1="319.416" y1="70.584" x2="290.167" y2="56.584"/>
<line fill="none" stroke="#FFFFFF" stroke-miterlimit="10" x1="233.803" y1="56.584" x2="209.041" y2="69.084"/>
<line fill="none" stroke="#FFFFFF" stroke-miterlimit="10" x1="233.803" y1="69.084" x2="210.791" y2="57.334"/>
<line fill="none" stroke="#FFFFFF" stroke-miterlimit="10" x1="121.552" y1="57.334" x2="91.916" y2="70.584"/>
<line fill="none" stroke="#FFFFFF" stroke-miterlimit="10" x1="121.552" y1="70.584" x2="91.916" y2="57.334"/>
<line fill="none" stroke="#FFFFFF" stroke-miterlimit="10" x1="35.623" y1="57.334" x2="11.998" y2="69.459"/>
<line fill="none" stroke="#FFFFFF" stroke-miterlimit="10" x1="35.955" y1="69.459" x2="13.748" y2="57.334"/>
<line fill="none" stroke="#FFFFFF" stroke-width="2" stroke-miterlimit="10" x1="1" y1="359.959" x2="610.421" y2="359.959"/>
<line fill="none" stroke="#FFFFFF" stroke-width="2" stroke-miterlimit="10" x1="0.066" y1="367" x2="611.421" y2="367"/>
<line fill="none" stroke="#FFFFFF" stroke-miterlimit="10" x1="579.548" y1="328.709" x2="575.035" y2="318.209"/>
<line fill="none" stroke="#FFFFFF" stroke-miterlimit="10" x1="480.599" y1="328.83" x2="476.085" y2="318.33"/>
<line fill="none" stroke="#FFFFFF" stroke-miterlimit="10" x1="382.505" y1="328.83" x2="377.992" y2="318.33"/>
<line fill="none" stroke="#FFFFFF" stroke-miterlimit="10" x1="283.789" y1="328.746" x2="279.275" y2="318.246"/>
<line fill="none" stroke="#FFFFFF" stroke-miterlimit="10" x1="184.416" y1="328.746" x2="179.902" y2="318.246"/>
<line fill="none" stroke="#FFFFFF" stroke-miterlimit="10" x1="86.623" y1="328.746" x2="82.109" y2="318.246"/>
<line fill="none" stroke="#FFFFFF" stroke-miterlimit="10" x1="31.837" y1="328.746" x2="36.351" y2="318.246"/>
<line fill="none" stroke="#FFFFFF" stroke-miterlimit="10" x1="130.888" y1="328.759" x2="135.402" y2="318.259"/>
<line fill="none" stroke="#FFFFFF" stroke-miterlimit="10" x1="228.836" y1="328.691" x2="233.35" y2="318.191"/>
<line fill="none" stroke="#FFFFFF" stroke-miterlimit="10" x1="327.755" y1="328.691" x2="332.269" y2="318.191"/>
<line fill="none" stroke="#FFFFFF" stroke-miterlimit="10" x1="427.005" y1="328.83" x2="431.519" y2="318.33"/>
<line fill="none" stroke="#FFFFFF" stroke-miterlimit="10" x1="524.798" y1="328.709" x2="529.312" y2="318.209"/>
</svg>
